<?xml version="1.0" encoding="utf-8"?>
<!-- Generator: Adobe Illustrator 19.2.1, SVG Export Plug-In . SVG Version: 6.00 Build 0)  -->
<!DOCTYPE svg PUBLIC "-//W3C//DTD SVG 1.1//EN" "http://www.w3.org/Graphics/SVG/1.1/DTD/svg11.dtd">
<svg version="1.1" id="Layer_1" xmlns="http://www.w3.org/2000/svg" xmlns:xlink="http://www.w3.org/1999/xlink" x="0px" y="0px"
	 viewBox="0 0 697.5 385.5" style="enable-background:new 0 0 697.5 385.5;" xml:space="preserve">
<style type="text/css">
	.st0{fill:none;}
	.st1{fill:#B54D15;}
	.st2{fill:#F6921E;}
	.st3{fill:#004A41;}
	.st4{fill:#0B8072;}
	.st5{fill:#231F20;}
	.st6{font-family:'Quicksand-Bold';}
	.st7{font-size:65.4828px;}
	.st8{letter-spacing:-6;}
	.st9{letter-spacing:-1;}
</style>
<g>
	<path id="SVGID_x5F_1_x5F_" class="st0" d="M362.1,228.6c0-74.5,59.2-135,132.2-135s132.2,60.4,132.2,135"/>
	<text>	<textPath  xlink:href="#SVGID_x5F_1_x5F_" startOffset="42.6758%">
<tspan  class="st1 st7" style="font-family:'FredokaOne-Regular';">RIGHT</tspan>	</textPath>
</text>
	<path id="lb-outline" class="st1" d="M371.6,198.1c-2.4,3.4-5.2,8.6-5.6,15.5c-0.8,14.8,9.8,27.8,28.5,34.7
		c4.2,1.5,10.8,3.4,18.6,3.4c1,0,2,0,2.9-0.1c1.1,3.9,2.9,7.6,5.4,10.8c9.8,12.9,29.5,17.5,44.6,17.5c1.6,0,3.1,0,4.6-0.1
		c0.7,1.5,1.5,3,2.5,4.4c5.2,6.9,13.3,9.2,19.6,9.9c0.5,1.5,1,2.9,1.6,4.2c1.1,2.7,2.1,5.6,3.3,9.2c0.4,1.3,1,2.8,1.6,4.4
		c0.3,0.7,0.7,1.9,1,2.7c0.4,9.6,7.8,17.8,17.7,18.9c0.8,0.1,1.5,0.1,2.3,0.1c10,0,18.7-7.5,19.9-17.6c0.9-7.5,0.6-14.5,0.2-21
		c3.8-0.9,7.4-2.4,10.6-4.4c4.1,1.9,8.3,2.8,12.5,2.8c5.4,0,10.7-1.6,15.4-4.5c8.8-5.6,14.5-15.1,16.7-27.3
		c6.1-2.2,12-7.2,14.9-16.3c1.4-4.2,4.3-15.3,1.7-26.5c-1.8-7.9-5.1-14.7-8.1-20.7c0.4-1.2,0.6-2.2,0.8-2.9
		c0.6-2.9,1.4-6.5,1.8-10.5c1.5-15.3-3.7-25.4-8.4-31.2c-8.3-10.2-20.8-15.8-29.9-18.6c-3.4-1.1-7.1-1.9-11-2.6
		c-0.5-2.2-1.2-4.3-2.3-6.4c-7.8-14.5-30.9-19.4-37.8-20.6c-2.1-0.4-4.2-0.5-6.3-0.5c-12.9,0-21.9,6.3-28.5,12.4
		c-8.1-7.8-18.3-12.1-28.9-12.1c-1.9,0-3.8,0.1-5.7,0.4c-21.9,3.2-29.1,20.9-33,30.4c-0.1,0.2-0.2,0.3-0.2,0.5
		c-1-0.1-1.9-0.1-2.9-0.1c-17.4,0-28.5,14.9-32.4,21.4c-6.2,10.1-9.1,22.7-8.2,35.7C371.2,195,371.4,196.6,371.6,198.1L371.6,198.1z
		"/>
	<path id="lb-fill" class="st2" d="M401.6,229.7c-6-2.2-16-7.4-15.6-15c0.4-6.5,8.1-9,6.3-15.4c-0.7-2.4-1-4.9-1.2-7.3
		c-0.6-8.2,1-16.9,5.3-23.9c3-4.8,9-11.9,15.4-11.9c1.4,0,2.8,0.3,4.2,1.1c2.2,1.2,3.8,2.2,5.5,2.2c1.4,0,2.7-0.7,4.4-2.4
		c9.5-10,8.2-29.4,24.9-31.9c1-0.1,1.9-0.2,2.9-0.2c8.2,0,15.1,5.2,19.6,11.9c2.3,3.4,3.7,7.2,6,10.5c4-1.7,8.3-7.1,11.4-10.2
		c5.9-5.9,11.8-12.6,20.5-12.6c1,0,1.9,0.1,3,0.3c4.8,0.8,26.8,6.5,23.7,13.4c-0.3,0.7-0.9,1.5-1.9,2.2c-3.6,2.9-9.4,4-13.8,4.6
		c-1.1,0.1-2.2,0.2-3.3,0.2c-2.1,0-4.2-0.3-6.2-0.9c-3-0.9-5.8-3.4-8.8-3.4c-1.1,0-2.2,0.3-3.4,1.2c-2.6,1.9-4.3,5.9-2.5,8.9
		c3.3,5.4,9.4,2.8,5.8,10.6c-3.2,7-12.3,16.3-10.5,24.4c0.8,3.5,3.1,4.8,5.7,4.8c3.5,0,7.6-2.3,9.3-5.1c4.5-7.3,2.5-16.9,7.3-23.9
		c5.6-8.1,17.1-10.9,28.2-10.9c6.9,0,13.7,1.1,18.8,2.7c7.2,2.3,15.5,6.2,20.3,12.2c3.9,4.8,4.6,10.9,4.1,16.8
		c-0.3,2.7-0.9,5.5-1.5,8.2c-0.4,2-3.1,8.2-2.2,9.9c3.5,7.2,7.7,14.3,9.5,22.2c1.1,4.9,0.3,11.3-1.3,16.1c-0.9,2.8-2.2,3.9-3.7,3.9
		c-4,0-9.2-7.4-11.7-10.3c-2.8-3.2-6.5-6.5-7.3-10.9c-0.9-5.3,2.6-10.3,3.8-15.3c0.9-3.9,2.4-12-2.3-14.2c-0.7-0.3-1.4-0.5-2-0.5
		c-5.3,0-7.5,10.9-8.2,14.6c-0.6,2.8-0.3,11.9-3.9,12.8c-0.7,0.2-1.4,0.3-2.2,0.3c-4.1,0-8.6-2.6-11.9-4.2
		c-3.7-1.8-7.3-3.8-10.8-5.9c-2.8-1.7-5.1-2.8-7.2-2.8c-5.6,0-9.8,9.8-7.2,13.9c10.5,16.6,31.3,8.2,45.8,15.5
		c13.2,6.6,20.4,26.5,5.6,35.9c-1.6,1-3.1,1.4-4.7,1.4c-1.5,0-3.1-0.4-4.6-1.2c-2.3-1.2-5.3-5.3-7.7-5.6c-0.1,0-0.1,0-0.2,0
		c-2.9,0-7.9,5.3-10.4,6.9c-3.3,2.1-6.7,2.6-10.1,2.6c-3.1,0-6.2-0.4-9.4-0.4c-0.4,0-0.7,0-1.1,0c-0.9,0,0.1,16,0.2,17.7
		c0.6,6.7,0.9,13.4,0.2,20.1c0.4-3.3-2.5-9-3.6-12.3c-1.1-3.6-2.4-7.2-3.8-10.6c-2-4.8-3.3-11.3-7.3-15c-1.4-1.3-2.8-1.6-4.2-1.6
		c-1,0-2.1,0.2-3.4,0.3c-0.1,0-0.2,0-0.4,0c-2,0-9.2-0.6-8.4-3.2c3-9.9,12.5-15.9,23.5-15.9c6.1,0,12.7,1.9,18.8,6.1
		c3.9-1.5,1.6-7.8,3-11.2c-8.2-5-16.7-8-25.4-8c-6.5,0-13.1,1.7-19.7,5.8c-4.6,2.9-6.4,8.6-11.4,10.4c-3,1.1-7.2,1.7-11.8,1.7
		c-10.8,0-23.7-3.2-28.6-9.6c-9.5-12.4,8-39.5,22.1-39.5h0.5c2.5,1,6.6,2.7,9.8,2.7c2.8,0,4.9-1.3,4.9-5.4c0-6.3-4.9-8.5-11-8.5
		c-7.8,0-17.4,3.7-20.8,7.2c-1.7-8.3-5.7-15.6-9.2-23.2c-1.5-3.3-6-6.7-10.1-6.7c-1.7,0-3.3,0.6-4.6,2.2c-3.5,4.3,1,11.3,3.1,15.3
		c5.6,10.2,14.8,24.6,2.6,34c-3.2,2.5-7.4,3.4-11.6,3.4C409.1,231.9,404.9,231,401.6,229.7L401.6,229.7z"/>
	<path id="rb-outline" class="st3" d="M330.6,199.5c0.2-1.5,0.4-3.1,0.5-4.7c0.9-12.9-2-25.6-8.2-35.7c-4-6.4-15-21.4-32.4-21.4
		c-1,0-2,0.1-2.9,0.1c-0.1-0.2-0.1-0.3-0.2-0.5c-3.9-9.5-11.1-27.2-33-30.4c-1.9-0.3-3.8-0.4-5.7-0.4c-10.6,0-20.8,4.3-28.9,12.1
		c-6.6-6-15.6-12.4-28.5-12.4c-2.1,0-4.2,0.2-6.3,0.5c-6.9,1.2-30,6.1-37.8,20.6c-1.1,2-1.9,4.2-2.3,6.4c-3.9,0.6-7.6,1.5-11,2.6
		c-9,2.9-21.6,8.4-29.9,18.6c-4.7,5.8-9.9,15.8-8.4,31.2c0.4,4,1.2,7.6,1.8,10.5c0.2,0.8,0.5,1.8,0.8,2.9c-3,6-6.3,12.7-8.1,20.7
		c-2.5,11.2,0.4,22.2,1.7,26.5c2.9,9.1,8.8,14.1,14.9,16.3c2.1,12.3,7.9,21.8,16.7,27.3c4.7,3,10,4.5,15.4,4.5
		c4.2,0,8.4-0.9,12.5-2.8c3.3,2.1,6.8,3.5,10.6,4.4c-0.5,6.5-0.7,13.5,0.2,21c1.2,10.1,9.8,17.6,19.9,17.6c0.8,0,1.5,0,2.3-0.1
		c10-1.1,17.4-9.3,17.7-18.9c0.3-0.8,0.7-1.9,1-2.7c0.6-1.6,1.2-3.2,1.6-4.4c1.1-3.6,2.2-6.5,3.3-9.2c0.5-1.3,1-2.7,1.6-4.2
		c6.3-0.7,14.4-3,19.6-9.9c1-1.4,1.9-2.9,2.5-4.4c1.5,0.1,3,0.1,4.6,0.1c15.1,0,34.7-4.6,44.6-17.5c2.5-3.2,4.3-6.9,5.4-10.8
		c1,0.1,1.9,0.1,2.9,0.1c7.8,0,14.4-1.8,18.6-3.4c18.7-6.9,29.4-19.9,28.5-34.7C335.9,208.1,333,202.9,330.6,199.5L330.6,199.5z"/>
	<path id="SVGID_x5F_2_x5F_" class="st0" d="M71,225c0-73,59.2-132.2,132.2-132.2S335.4,152,335.4,225"/>
	<text>	<textPath  xlink:href="#SVGID_x5F_2_x5F_" startOffset="21.8832%">
<tspan  class="st3 st7" style="font-family:'FredokaOne-Regular';">LEFT</tspan>	</textPath>
</text>
	<path id="rb-fill" class="st4" d="M300.7,231.1c-3.4,1.3-7.5,2.1-11.6,2.1c-4.2,0-8.4-0.9-11.6-3.4c-12.2-9.4-3-23.7,2.6-34
		c2.1-3.9,6.6-11,3.1-15.3c-1.3-1.5-2.9-2.2-4.6-2.2c-4,0-8.6,3.4-10,6.7c-3.5,7.6-7.5,14.9-9.2,23.2c-3.4-3.5-13-7.2-20.8-7.2
		c-6,0-11,2.2-11,8.5c0,4.1,2.1,5.4,4.9,5.4c3.2,0,7.2-1.7,9.8-2.7h0.5c14.1,0,31.6,27.1,22.1,39.5c-4.9,6.4-17.8,9.6-28.6,9.6
		c-4.6,0-8.8-0.6-11.8-1.7c-5-1.9-6.8-7.6-11.4-10.4c-6.6-4-13.2-5.8-19.7-5.8c-8.7,0-17.2,3.1-25.4,8c1.4,3.3-0.9,9.6,3,11.2
		c6.1-4.2,12.7-6.1,18.8-6.1c10.9,0,20.4,6.1,23.5,15.9c0.8,2.6-6.4,3.2-8.4,3.2c-0.2,0-0.3,0-0.4,0c-1.2-0.1-2.4-0.3-3.4-0.3
		c-1.5,0-2.8,0.3-4.3,1.6c-4,3.7-5.3,10.2-7.3,15c-1.4,3.5-2.6,7.1-3.8,10.6c-1,3.2-3.9,8.9-3.6,12.3c-0.8-6.7-0.4-13.4,0.1-20.1
		c0.2-1.7,1.2-17.7,0.2-17.7c-0.4,0-0.8,0-1.1,0c-3.2,0-6.3,0.4-9.4,0.4c-3.4,0-6.8-0.5-10.1-2.6c-2.5-1.6-7.5-6.9-10.4-6.9
		c-0.1,0-0.1,0-0.2,0c-2.5,0.2-5.4,4.4-7.7,5.6c-1.6,0.8-3.1,1.2-4.6,1.2c-1.6,0-3.1-0.5-4.7-1.4c-14.8-9.4-7.7-29.3,5.5-35.9
		c14.5-7.3,35.3,1.1,45.8-15.5c2.6-4.1-1.6-13.9-7.2-13.9c-2.1,0-4.4,1-7.2,2.8c-3.5,2.2-7.1,4.1-10.8,5.9
		c-3.3,1.6-7.9,4.2-11.9,4.2c-0.7,0-1.5-0.1-2.2-0.3c-3.6-1-3.4-10-3.9-12.8c-0.7-3.7-2.9-14.6-8.2-14.6c-0.6,0-1.3,0.2-2,0.5
		c-4.8,2.2-3.3,10.3-2.4,14.2c1.2,5,4.7,10,3.8,15.3c-0.7,4.4-4.4,7.7-7.3,10.9c-2.5,2.8-7.7,10.3-11.7,10.3c-1.5,0-2.8-1.1-3.7-3.9
		c-1.5-4.7-2.4-11.1-1.3-16.1c1.8-7.9,6-15,9.5-22.2c0.8-1.7-1.8-8-2.2-9.9c-0.6-2.7-1.2-5.4-1.5-8.2c-0.6-5.9,0.2-12,4.1-16.8
		c4.8-5.9,13.1-9.9,20.3-12.2c5.1-1.6,11.9-2.7,18.8-2.7c11.1,0,22.6,2.9,28.3,10.9c4.9,7,2.8,16.6,7.3,23.9
		c1.7,2.7,5.7,5.1,9.3,5.1c2.6,0,4.9-1.3,5.7-4.8c1.8-8.1-7.3-17.3-10.5-24.4c-3.5-7.8,2.6-5.2,5.8-10.6c1.8-2.9,0.1-7-2.5-8.9
		c-1.2-0.9-2.3-1.2-3.4-1.2c-3,0-5.8,2.5-8.8,3.4c-2,0.6-4.1,0.9-6.2,0.9c-1.1,0-2.2-0.1-3.3-0.2c-4.4-0.6-10.3-1.7-13.8-4.6
		c-1-0.8-1.6-1.5-1.9-2.2c-3.1-6.9,18.8-12.6,23.7-13.4c1-0.2,2-0.3,3-0.3c8.7,0,14.6,6.7,20.4,12.6c3.1,3.1,7.4,8.5,11.4,10.2
		c2.2-3.3,3.7-7.2,6-10.5c4.5-6.7,11.4-11.9,19.6-11.9c0.9,0,1.9,0.1,2.9,0.2c16.7,2.4,15.4,21.9,24.9,31.9c1.7,1.8,3,2.4,4.4,2.4
		c1.7,0,3.3-1,5.5-2.2c1.4-0.8,2.8-1.1,4.2-1.1c6.4,0,12.4,7,15.4,11.9c4.3,7,5.9,15.8,5.3,23.9c-0.2,2.5-0.6,5-1.2,7.3
		c-1.8,6.4,5.9,8.9,6.3,15.4C316.7,223.7,306.7,228.9,300.7,231.1L300.7,231.1z"/>
	<text transform="matrix(1 0 0 1 316.2946 106.2055)"><tspan x="0" y="0" class="st5 st6 st7 st8">v</tspan><tspan x="31.6" y="0" class="st5 st6 st7 st9">s.</tspan></text>
</g>
</svg>
