<svg xmlns="http://www.w3.org/2000/svg" viewBox="0 0 257.3 257.3"><style>.st0{fill:#F6921E;stroke:#B54D15;stroke-width:3;stroke-miterlimit:10;} .st1{fill:#FFFFFF;} .st2{fill:#B54D15;} .st3{fill:#FFFFFF;stroke:#FFC50A;stroke-width:6;stroke-miterlimit:10;} .st4{fill:#F05A22;stroke:#F06356;stroke-width:2;stroke-linecap:round;stroke-miterlimit:10;}</style><circle id="impulsive-background" cx="128.7" cy="128.7" r="103.9" class="st0"/><g id="impulsive-brain"><g id="XMLID_17_"><path d="M60.6 106.8c1.1.6 1.8 1.1 2.6 1.1.7 0 1.3-.3 2.1-1.2 4.6-4.9 4-14.3 12.1-15.5.5-.1.9-.1 1.4-.1 4 0 7.3 2.5 9.5 5.8l2.9 5.1c1.9-.8 4-3.5 5.6-5 2.9-2.9 5.7-6.1 9.9-6.1.5 0 .9 0 1.4.1 2.4.4 13 3.2 11.5 6.5-.2.4-.5.7-.9 1.1-1.7 1.4-4.6 2-6.7 2.2-.5.1-1.1.1-1.6.1-1 0-2-.1-3-.4-1.4-.5-2.8-1.7-4.3-1.7-.5 0-1.1.2-1.7.6-1.2.9-2.1 2.9-1.2 4.3 1.6 2.6 4.6 1.4 2.8 5.2-1.5 3.4-6 7.9-5.1 11.9.4 1.7 1.5 2.3 2.8 2.3 1.7 0 3.7-1.1 4.5-2.5 2.2-3.5 1.2-8.2 3.6-11.6 2.7-3.9 8.3-5.3 13.7-5.3 3.4 0 6.7.5 9.2 1.3 3.5 1.1 7.5 3 9.9 5.9 1.9 2.3 2.3 5.3 2 8.2-.1 1.3-.4 2.6-.7 4-.2 1-1.5 4-1.1 4.9 1.7 3.5 3.7 7 4.6 10.8.6 2.4.1 5.5-.6 7.8-.4 1.4-1.1 1.9-1.8 1.9-1.9 0-4.5-3.6-5.7-5-1.4-1.6-3.2-3.2-3.5-5.3-.4-2.6 1.3-5 1.8-7.5.5-1.9 1.2-5.8-1.1-6.9-.3-.1-.7-.2-1-.2-2.6 0-3.6 5.3-4 7.1-.3 1.4-.2 5.8-1.9 6.2-.4.1-.7.2-1.1.2-2 0-4.2-1.3-5.8-2.1-1.8-.9-3.6-1.8-5.2-2.9-1.4-.9-2.5-1.4-3.5-1.4-2.8 0-4.8 4.8-3.5 6.8 5.1 8.1 15.2 4 22.3 7.5 6.4 3.2 9.9 12.9 2.7 17.5-.8.5-1.5.7-2.3.7s-1.5-.2-2.3-.6c-1.1-.6-2.6-2.6-3.8-2.7h-.1c-1.4 0-3.9 2.6-5.1 3.4-1.6 1-3.2 1.3-4.9 1.3-1.5 0-3-.2-4.6-.2h-.6c-.5 0 0 7.8.1 8.6.3 3.2.4 6.3.1 9.5 0-1.7-1.3-4.2-1.7-5.7l-1.8-5.2c-1-2.3-1.6-5.5-3.6-7.3-.7-.6-1.4-.8-2.1-.8-.5 0-1 .1-1.7.1h-.2c-1 0-4.5-.3-4.1-1.6 1.5-4.8 6.1-7.8 11.4-7.8 3 0 6.2.9 9.2 2.9 1.9-.7.8-3.8 1.5-5.4-4-2.4-8.1-3.9-12.4-3.9-3.2 0-6.4.9-9.6 2.8-2.3 1.4-3.1 4.2-5.6 5.1-1.5.6-3.5.8-5.8.8-5.2 0-11.5-1.5-13.9-4.7-4.6-6 3.9-19.2 10.8-19.2h.6c1.2.5 3.2 1.3 4.8 1.3 1.3 0 2.4-.6 2.4-2.6 0-3-2.4-4.1-5.3-4.1-3.8 0-8.5 1.8-10.1 3.5-.8-4-2.8-7.6-4.5-11.3-.7-1.6-2.9-3.3-4.9-3.3-.8 0-1.6.3-2.2 1.1-1.7 2.1.5 5.5 1.5 7.4 2.7 5 7.2 12 1.3 16.5-1.6 1.2-3.6 1.7-5.7 1.7-2 0-4-.4-5.6-1-2.9-1.1-7.8-3.6-7.6-7.3.2-3.2 3.9-4.3 3.1-7.5-.3-1.2-.5-2.4-.6-3.6-.3-4 .5-8.2 2.6-11.6 1.4-2.3 4.4-5.8 7.5-5.8.5.3 1.2.5 1.9.8z" class="st1"/><path d="M109.9 81.6c3.4.6 14.6 3 18.4 10 .5 1 .9 2 1.1 3.1 1.9.3 3.7.7 5.4 1.2 4.4 1.4 10.5 4.1 14.5 9.1 2.3 2.8 4.8 7.7 4.1 15.2-.2 1.9-.6 3.7-.9 5.1-.1.4-.2.9-.4 1.4 1.5 2.9 3.1 6.2 3.9 10.1 1.2 5.5-.2 10.8-.9 12.9-1.4 4.4-4.3 6.8-7.2 7.9-1.1 6-3.8 10.6-8.1 13.3-2.3 1.4-4.9 2.2-7.5 2.2-2.1 0-4.1-.5-6.1-1.4-1.6 1-3.3 1.7-5.2 2.2.2 3.2.3 6.6-.1 10.2-.6 4.9-4.8 8.6-9.7 8.6h-1.1c-4.8-.6-8.4-4.5-8.6-9.2-.1-.4-.3-.9-.5-1.3-.3-.8-.6-1.5-.8-2.1-.6-1.8-1-3.2-1.6-4.5-.3-.6-.5-1.3-.8-2-3.1-.3-7-1.4-9.5-4.8-.5-.7-.9-1.4-1.2-2.1l-2.2.1c-7.3 0-16.9-2.2-21.7-8.5-1.2-1.6-2.1-3.3-2.6-5.2h-1.4c-3.8 0-7-.9-9.1-1.6-9.1-3.4-14.3-9.7-13.9-16.9.2-3.4 1.6-5.9 2.7-7.5-.1-.8-.2-1.5-.2-2.3-.4-6.3 1-12.5 4-17.4 1.9-3.1 7.3-10.4 15.8-10.4.5 0 .9 0 1.4.1l.1-.3c1.9-4.6 5.4-13.2 16-14.8.9-.1 1.9-.2 2.8-.2 5.2 0 10.1 2.1 14.1 5.9 3.2-2.9 7.6-6 13.8-6 1.1-.4 2.1-.3 3.2-.1zm-6.7 17.3c1.5 0 2.9 1.2 4.3 1.7 1 .3 2 .4 3 .4.6 0 1.1 0 1.6-.1 2.2-.3 5-.9 6.7-2.2.5-.4.8-.7.9-1.1 1.5-3.4-9.2-6.1-11.5-6.5-.5-.1-1-.1-1.4-.1-4.2 0-7.1 3.2-9.9 6.1-1.5 1.5-3.6 4.2-5.6 5l-2.9-5.1c-2.2-3.3-5.5-5.8-9.5-5.8-.5 0-.9 0-1.4.1-8.1 1.2-7.5 10.6-12.1 15.5-.8.9-1.5 1.2-2.1 1.2-.8 0-1.6-.5-2.6-1.1-.7-.4-1.4-.6-2.1-.6-3.1 0-6 3.4-7.5 5.8-2.1 3.4-2.9 7.7-2.6 11.6.1 1.2.3 2.4.6 3.6.9 3.1-2.9 4.3-3.1 7.5-.2 3.7 4.6 6.2 7.6 7.3 1.6.6 3.7 1 5.6 1 2.1 0 4.1-.5 5.7-1.7 5.9-4.6 1.4-11.5-1.3-16.5-1-1.9-3.2-5.3-1.5-7.4.6-.8 1.4-1.1 2.2-1.1 2 0 4.2 1.7 4.9 3.3 1.7 3.7 3.6 7.2 4.5 11.3 1.7-1.7 6.3-3.5 10.1-3.5 2.9 0 5.3 1.1 5.3 4.1 0 2-1 2.6-2.4 2.6-1.6 0-3.5-.8-4.8-1.3h-.2c-6.9 0-15.4 13.2-10.8 19.2 2.4 3.1 8.7 4.7 13.9 4.7 2.2 0 4.3-.3 5.8-.8 2.4-.9 3.3-3.7 5.6-5.1 3.2-2 6.4-2.8 9.6-2.8 4.2 0 8.4 1.5 12.4 3.9-.7 1.6.4 4.7-1.5 5.4-3-2-6.2-2.9-9.2-2.9-5.3 0-9.9 2.9-11.4 7.8-.4 1.3 3.1 1.6 4.1 1.6h.2c.6 0 1.2-.1 1.7-.1.7 0 1.4.2 2.1.8 2 1.8 2.6 4.9 3.6 7.3.7 1.7 1.3 3.4 1.8 5.2.5 1.5 1.7 4 1.7 5.7.3-3.2.2-6.3-.1-9.5-.1-.8-.6-8.6-.1-8.6h.6l4.6.2c1.7 0 3.3-.2 4.9-1.3 1.2-.8 3.7-3.4 5.1-3.4h.1c1.2.1 2.6 2.2 3.8 2.7.8.4 1.5.6 2.3.6s1.5-.2 2.3-.7c7.2-4.6 3.7-14.2-2.7-17.5-7.1-3.5-17.2.6-22.3-7.5-1.3-2 .8-6.8 3.5-6.8 1 0 2.1.5 3.5 1.4 1.7 1 3.4 2 5.2 2.9 1.6.8 3.8 2.1 5.8 2.1.4 0 .7 0 1.1-.2 1.7-.5 1.6-4.9 1.9-6.2.4-1.8 1.4-7.1 4-7.1.3 0 .6.1 1 .2 2.3 1.1 1.6 5 1.1 6.9-.6 2.4-2.3 4.9-1.8 7.5.4 2.1 2.2 3.7 3.5 5.3 1.2 1.4 3.8 5 5.7 5 .7 0 1.4-.5 1.8-1.9.7-2.3 1.2-5.4.6-7.8-.9-3.8-2.9-7.3-4.6-10.8-.4-.9.9-3.9 1.1-4.9.3-1.3.6-2.6.7-4 .3-2.9-.1-5.9-2-8.2-2.3-2.9-6.4-4.8-9.9-5.9-2.5-.8-5.8-1.3-9.2-1.3-5.4 0-11 1.4-13.7 5.3-2.4 3.4-1.4 8.1-3.6 11.6-.8 1.3-2.8 2.5-4.5 2.5-1.3 0-2.4-.6-2.8-2.3-.9-4 3.6-8.4 5.1-11.9 1.7-3.8-1.2-2.5-2.8-5.2-.9-1.4 0-3.4 1.2-4.3.4-.6 1-.8 1.5-.8z" class="st2"/></g><path d="M116.9 158.3c2.1-13 4.4-25.9 7-38.7 1.2-5.8 2.2-11.6 3.7-17.4 1.3-5.3 3.5-10.5 9.4-11.4 5-.8 4.4-7.2 1.3-9.6-5.2-3.9-12.4-3.1-17.5.7-6 4.5-8.2 12.3-9.4 19.3-3.2 18-3.1 36.8-4.3 54.9-.4 6.7 10.1 6.7 10.5 0 .9-13.5 1.6-27 2.6-40.5.3-4.5 2.5-33 12.8-25.4.4-3.2.8-6.4 1.3-9.6-13.7 2.1-16.5 17.2-18.8 28.4-3.2 15.4-6 30.9-8.5 46.5-1.3 6.6 8.8 9.5 9.9 2.8z" class="st2"/><circle cx="200" cy="106.4" r="21" class="st3"/><path d="M196.6 107.3l11.5-9.6m-11.5 9.6l8.4 12.5m-62.8-49.7s21.9-2 29.4 10.5m-14.7-15.7s21.9-2 29.4 10.5" class="st4"/></g></svg>