<svg xmlns="http://www.w3.org/2000/svg" viewBox="0 0 257.3 257.3"><style>.st0{fill:#F6921E;stroke:#B54D15;stroke-width:3;stroke-miterlimit:10;} .st1{fill:#FFFFFF;} .st2{fill:none;stroke:#B54D15;stroke-width:9;stroke-miterlimit:10;} .st3{fill:#B54D15;}</style><circle id="psychic-background" cx="128.7" cy="128.7" r="103.9" class="st0"/><g id="psychic-brain"><g id="XMLID_5_"><path d="M125.5 69.4c2.9-2.9 7-6 12.8-6 .9 0 1.9.1 2.9.3 3.1.6 13.5 3 17 10 .5 1 .8 2 1 3.1 1.7.3 3.4.7 5 1.2 4.1 1.4 9.7 4.1 13.4 9.1 2.1 2.8 4.5 7.7 3.8 15.2-.2 1.9-.5 3.7-.8 5.1-.1.4-.2.9-.4 1.4 1.4 2.9 2.8 41.3 3.6 45.2 1.2 5.5-.2 10.8-.8 12.9-1.3 4.4-4.8 5.5-6.7 7.9-3.6 4.6-3.6 10.6-7.5 13.3-2.1 1.4-4.5 2.2-6.9 2.2-1.9 0-3.6-1.5-5.6-1.4-1.7.1-3.7.6-4.8 2.2-1.7 2.6-10.3 3.6-10.8 2.3-.3-.6-10-2.3-10.6-2.8-2.3-1.9-6.5-1.4-8.8-4.8-.5-.7-.5-1.7-1.2-2.1-.6-.4-1.4.1-2.1.1-6.8 0-15.7-2.2-20.1-8.5-1.1-1.6-1.9-3.3-2.4-5.2h-1.3c-3.5 0-6.5-.9-8.4-1.6-8.4-3.4-13.2-44.8-12.8-52 .2-3.4 1.4-5.9 2.5-7.5-.1-.8-.2-1.5-.2-2.3-.4-6.3.9-12.5 3.7-17.4 1.8-3.1 6.8-10.4 14.6-10.4.4 0 .9 0 1.3.1l.1-.3c1.7-4.6 5-13.2 14.8-14.8.9-.1 1.7-.2 2.6-.2 4.8-.1 9.4 2 13.1 5.7z" class="st1"/><path d="M75.5 108.8c-.1-.8-.2-1.5-.2-2.3-.4-6.3.9-12.5 3.7-17.4 1.8-3.1 6.8-10.4 14.6-10.4.4 0 .9 0 1.3.1l.1-.3c1.7-4.6 5-13.2 14.8-14.8.9-.1 1.7-.2 2.6-.2 4.8 0 9.4 2.1 13 5.9 2.9-2.9 7-6 12.8-6 .9 0 1.9.1 2.9.3 3.1.6 13.5 3 17 10 .5 1 .8 2 1 3.1 1.7.3 3.4.7 5 1.2 4.1 1.4 9.7 4.1 13.4 9.1 2.1 2.8 4.5 7.7 3.8 15.2-.2 1.9-.5 3.7-.8 5.1-.1.4-.2.9-.4 1.4 1.4 2.9 2.8 41.3 3.6 45.2 1.2 5.5-.2 10.8-.8 12.9-1.3 4.4-4.8 5.5-6.7 7.9-3.6 4.6-3.6 10.6-7.5 13.3-2.1 1.4-4.5 2.2-6.9 2.2-1.9 0-3.6-1.5-5.6-1.4-1.7.1-3.7.6-4.8 2.2-1.7 2.6-10.3 3.6-10.8 2.3-.3-.6-10-2.3-10.6-2.8-2.3-1.9-6.5-1.4-8.8-4.8-.5-.7-.5-1.7-1.2-2.1-.6-.4-1.4.1-2.1.1-6.8 0-15.7-2.2-20.1-8.5-1.1-1.6-1.9-3.3-2.4-5.2h-1.3c-3.5 0-6.5-.9-8.4-1.6-8.4-3.4-13.2-44.8-12.8-52 .3-3.6 1.6-6.1 2.6-7.7z" class="st2"/></g><ellipse cx="97.7" cy="113.3" class="st3" rx="12.8" ry="16.1"/><ellipse cx="135.3" cy="111.7" class="st3" rx="16.5" ry="21.6"/><ellipse cx="119.6" cy="147" class="st3" rx="6.8" ry="13.1"/></g></svg>