<svg xmlns="http://www.w3.org/2000/svg" viewBox="0 0 257.3 257.3"><style>.st0{fill:#0B8072;stroke:#004A41;stroke-width:3;stroke-miterlimit:10;} .st1{fill:#004A41;} .st2{fill:#FFFFFF;} .st3{fill:#0FA0B9;} .st4{fill:#223E52;}</style><circle id="rational-background" cx="128.7" cy="128.7" r="103.9" class="st0"/><g id="rational-brain"><path d="M104.7 191.7c-.3-3.2-.2-6.3.1-9.5.1-.8.6-8.6.1-8.6h-.6c-1.6 0-3.1.2-4.6.2-1.7 0-3.3-.2-4.9-1.2-1.2-.8-3.6-3.4-5.1-3.4h-.1c-1.2.1-2.6 2.1-3.7 2.7-.8.4-1.5.6-2.3.6-.8 0-1.5-.2-2.3-.7-7.2-4.6-3.7-14.2 2.7-17.5 7.1-3.5 17.2.5 22.3-7.5 1.3-2-.8-6.8-3.5-6.8-1 0-2.2.5-3.5 1.3-1.7 1.1-3.5 2-5.2 2.9-1.6.8-3.8 2-5.8 2-.3 0-.7 0-1.1-.1-1.7-.5-1.6-4.9-1.9-6.3-.3-1.8-1.4-7.1-4-7.1-.3 0-.6.1-1 .2-2.3 1.1-1.6 5-1.1 6.9.6 2.4 2.3 4.8 1.8 7.4-.4 2.1-2.2 3.7-3.5 5.3-1.2 1.4-3.7 5-5.7 5-.7 0-1.4-.5-1.8-1.9-.7-2.3-1.2-5.4-.6-7.8.9-3.8 2.9-7.3 4.6-10.8.4-.8-.9-3.9-1.1-4.8-.3-1.3-.6-2.6-.7-4-.3-2.9.1-5.8 2-8.2 2.3-2.9 6.4-4.8 9.9-5.9 2.5-.8 5.8-1.3 9.1-1.3 5.4 0 11 1.4 13.8 5.3 2.4 3.4 1.4 8.1 3.6 11.6.8 1.3 2.8 2.5 4.5 2.5 1.3 0 2.4-.6 2.8-2.3.9-3.9-3.6-8.4-5.1-11.8-1.7-3.8 1.3-2.6 2.9-5.2.9-1.4 0-3.4-1.2-4.3-.6-.4-1.1-.6-1.7-.6-1.4 0-2.8 1.2-4.3 1.7-1 .3-2 .5-3 .5-.5 0-1.1 0-1.6-.1-2.2-.3-5-.8-6.7-2.2-.5-.4-.8-.7-.9-1.1-1.5-3.4 9.2-6.1 11.5-6.5.5-.1 1-.1 1.4-.1 4.2 0 7.1 3.3 10 6.1 1.5 1.5 3.6 4.2 5.5 5l2.9-5.1c2.2-3.2 5.5-5.8 9.5-5.8.4 0 .9 0 1.4.1 8.1 1.2 7.5 10.6 12.1 15.5.8.9 1.5 1.2 2.1 1.2.8 0 1.6-.5 2.7-1.1.7-.4 1.4-.5 2.1-.5 3.1 0 6 3.4 7.5 5.8 2.1 3.4 2.9 7.7 2.6 11.6-.1 1.2-.3 2.4-.6 3.6-.9 3.1 2.9 4.3 3.1 7.5.2 3.7-4.6 6.2-7.6 7.3-1.7.6-3.7 1-5.7 1s-4.1-.5-5.6-1.7c-5.9-4.6-1.4-11.5 1.2-16.5 1-1.9 3.2-5.3 1.5-7.4-.6-.7-1.4-1-2.2-1-2 0-4.2 1.7-4.9 3.2-1.7 3.7-3.7 7.3-4.5 11.3-1.6-1.7-6.3-3.5-10.1-3.5-2.9 0-5.3 1.1-5.3 4.1 0 2 1 2.6 2.4 2.6 1.5 0 3.5-.8 4.7-1.3h.3c6.9 0 15.4 13.2 10.7 19.2-2.4 3.1-8.6 4.7-13.9 4.7-2.2 0-4.3-.3-5.7-.8-2.5-.9-3.3-3.7-5.6-5.1-3.2-2-6.4-2.8-9.6-2.8-4.2 0-8.4 1.5-12.4 3.9.7 1.6-.4 4.7 1.5 5.4 3-2 6.2-3 9.1-3 5.3 0 9.9 3 11.4 7.8.4 1.3-3.1 1.6-4.1 1.6h-.2c-.6 0-1.2-.1-1.6-.1-.7 0-1.4.2-2.1.8-2 1.8-2.6 4.9-3.6 7.3-.7 1.7-1.3 3.4-1.8 5.2-.4 1.2-1.7 3.7-1.7 5.4zm-44.7-45.9c-1.2 5.5.2 10.8.8 12.9 1.4 4.4 4.3 6.9 7.3 7.9 1 6 3.8 10.6 8.1 13.3 2.3 1.4 4.9 2.2 7.5 2.2 2 0 4.1-.5 6.1-1.4 1.6 1 3.3 1.7 5.2 2.2-.2 3.2-.3 6.6.1 10.2.6 4.9 4.8 8.6 9.7 8.6.4 0 .7 0 1.1-.1 4.9-.6 8.5-4.5 8.6-9.2l.5-1.3c.3-.8.6-1.5.8-2.1.6-1.7 1.1-3.2 1.6-4.5.3-.6.5-1.3.8-2 3.1-.3 7-1.4 9.5-4.8.5-.7.9-1.4 1.2-2.1l2.2.1c7.4 0 16.9-2.2 21.7-8.5 1.2-1.6 2.1-3.4 2.6-5.3h1.4c3.8 0 7-.9 9.1-1.7 9.1-3.4 14.3-9.7 13.9-16.9-.2-3.4-1.6-5.9-2.7-7.5l.3-2.3c.4-6.3-1-12.5-4-17.3-1.9-3.1-7.3-10.4-15.8-10.4-.5 0-1 0-1.4.1 0-.1-.1-.2-.1-.2-1.9-4.6-5.4-13.3-16-14.8-.9-.1-1.9-.2-2.8-.2-5.2 0-10.1 2.1-14.1 5.9-3.2-2.9-7.6-6-13.9-6-1 0-2 .1-3.1.3-3.4.6-14.6 2.9-18.4 10-.5 1-.9 2-1.2 3.1-1.9.3-3.7.7-5.3 1.2-4.4 1.4-10.5 4.1-14.5 9.1-2.3 2.8-4.8 7.7-4.1 15.2.2 1.9.6 3.7.9 5.1.1.4.2.9.4 1.4-1.5 2.7-3.1 5.9-4 9.8z" class="st1"/><path d="M69.5 147.9c-.5 2.4-.1 5.5.6 7.8.4 1.4 1.1 1.9 1.8 1.9 1.9 0 4.5-3.6 5.7-5 1.4-1.5 3.2-3.2 3.5-5.3.4-2.6-1.3-5-1.8-7.4-.4-1.9-1.2-5.8 1.1-6.9.3-.2.7-.2 1-.2 2.6 0 3.6 5.3 4 7.1.3 1.4.2 5.8 1.9 6.3.3.1.7.1 1.1.1 2 0 4.2-1.3 5.8-2 1.8-.9 3.5-1.8 5.2-2.9 1.3-.9 2.5-1.3 3.5-1.3 2.7 0 4.8 4.8 3.5 6.8-5.1 8.1-15.2 4-22.3 7.5-6.4 3.2-9.9 12.9-2.7 17.5.8.5 1.5.7 2.3.7.7 0 1.5-.2 2.3-.6 1.1-.6 2.6-2.6 3.7-2.7h.1c1.4 0 3.8 2.6 5.1 3.4 1.6 1 3.2 1.2 4.9 1.2 1.5 0 3-.2 4.6-.2h.6c.5 0 0 7.8-.1 8.6-.3 3.2-.4 6.3-.1 9.5 0-1.6 1.3-4.2 1.8-5.7l1.8-5.2c1-2.4 1.6-5.5 3.6-7.3.7-.6 1.3-.8 2.1-.8.5 0 1 .1 1.6.1h.2c1 0 4.5-.3 4.1-1.6-1.5-4.8-6.1-7.8-11.4-7.8-3 0-6.2.9-9.1 3-1.9-.8-.8-3.8-1.5-5.4 4-2.4 8.1-3.9 12.4-3.9 3.2 0 6.4.9 9.6 2.8 2.3 1.4 3.1 4.2 5.6 5.1 1.5.6 3.5.8 5.7.8 5.3 0 11.5-1.6 13.9-4.7 4.6-6-3.9-19.2-10.7-19.2h-.5c-1.2.5-3.2 1.3-4.7 1.3-1.4 0-2.4-.6-2.4-2.6 0-3 2.4-4.1 5.3-4.1 3.8 0 8.5 1.8 10.1 3.5.8-4 2.8-7.6 4.5-11.3.7-1.6 2.9-3.2 4.9-3.2.8 0 1.6.3 2.2 1 1.7 2.1-.5 5.5-1.5 7.4-2.7 5-7.2 11.9-1.2 16.5 1.5 1.2 3.6 1.7 5.6 1.7 2 0 4-.4 5.7-1 2.9-1.1 7.8-3.6 7.6-7.3-.2-3.2-3.9-4.4-3.1-7.5.3-1.2.5-2.4.6-3.6.3-4-.5-8.2-2.6-11.6-1.4-2.4-4.4-5.8-7.5-5.8-.7 0-1.4.2-2.1.5-1.1.6-1.9 1.1-2.7 1.1-.6 0-1.3-.3-2.1-1.2-4.6-4.8-4-14.3-12.1-15.5-.5-.1-.9-.1-1.4-.1-4 0-7.3 2.6-9.5 5.8l-2.9 5.1c-1.9-.8-4-3.5-5.5-5-2.9-2.9-5.7-6.1-10-6.1-.5 0-.9 0-1.4.1-2.3.4-13 3.1-11.5 6.5.2.3.5.7.9 1.1 1.7 1.4 4.6 2 6.7 2.2.6.1 1.1.1 1.6.1 1 0 2-.1 3-.5 1.4-.5 2.8-1.7 4.3-1.7.6 0 1.1.2 1.7.6 1.3.9 2.1 2.9 1.2 4.3-1.6 2.6-4.6 1.4-2.9 5.2 1.6 3.4 6 7.9 5.1 11.8-.4 1.7-1.5 2.3-2.8 2.3-1.7 0-3.7-1.1-4.5-2.5-2.2-3.5-1.2-8.2-3.6-11.6-2.7-3.9-8.3-5.3-13.8-5.3-3.4 0-6.6.5-9.1 1.3-3.5 1.1-7.6 3-9.9 5.9-1.9 2.3-2.3 5.3-2 8.2.1 1.3.4 2.7.7 4 .2 1 1.5 4 1.1 4.8-1.6 3.8-3.6 7.3-4.5 11.1z" class="st2"/></g><g id="rational-mark"><path d="M166 102.6c-1.3 0-2.5-.3-3.6-.9-1.6-.9-2.5-2.5-2.5-4.4 0-1.1.3-2.2 1-3.1.5-.7 1.1-1.4 1.9-1.9.7-.5 1.5-.9 2.3-1.1.8-.2 1.6-.3 2.3-.3 1.4 0 2.6.4 3.7 1.1 1.5 1 2.4 2.6 2.4 4.5 0 1.2-.3 2.3-1 3.2-.5.7-1.2 1.3-1.9 1.8-.7.4-1.5.8-2.3 1-.8 0-1.6.1-2.3.1zm1.1-17.1c-2.6 0-4.7-1.5-5.6-4-.2-.7-.4-1.6-.6-2.7-.1-.9-.2-1.9-.2-2.9-.1-1-.1-2-.1-2.9v-2.2c0-.6 0-1.2.1-1.9.1-1.2.4-2.2 1-3 .6-.8 1.4-1.6 2.5-2.2.7-.4 1.4-.9 2.2-1.3.6-.3 1-.7 1.4-1.1-.1-.2-.2-.3-.2-.3l-.6-.3c-.2-.1-.4-.1-.6-.1-1.1 0-1.5.2-1.6.2-.5.3-1 .6-1.3 1l-1.5 1.4c-1 .9-2.3 1.4-3.8 1.4s-3-.6-4.2-1.6c-1.3-1.2-2-2.7-2-4.3 0-2 .6-3.8 1.9-5.3 1.1-1.3 2.4-2.3 3.9-3 1.4-.7 2.9-1.2 4.4-1.5 1.5-.3 2.8-.4 4-.4 1.7 0 3.5.4 5.3 1.1 1.7.7 3.3 1.7 4.7 2.8 1.4 1.2 2.6 2.6 3.6 4.3 1 1.8 1.5 3.7 1.5 5.6 0 1.6-.4 3.2-1.3 4.6-.7 1.2-1.6 2.2-2.6 3.2s-2.1 1.8-3.3 2.5c-.4.2-.8.4-1.1.6.1 1.1.1 2.1.1 3.2v2c0 1-.2 1.9-.4 2.8-.3 1.1-.9 2-1.6 2.8-.7.6-2 1.5-4 1.5z" class="st3"/><path d="M166.1 51.2c1.4 0 2.8.3 4.2.9 1.4.6 2.7 1.4 3.9 2.4 1.2 1 2.1 2.1 2.9 3.5.8 1.3 1.1 2.7 1.1 4.1 0 1.1-.3 2.1-.8 3-.6.9-1.3 1.8-2.1 2.6s-1.7 1.5-2.7 2.1c-1 .6-1.9 1.1-2.8 1.4.2 1.6.3 3.3.3 5v1.9c0 .7-.1 1.4-.3 2-.2.6-.5 1.2-.9 1.6-.4.4-1 .7-1.8.7-1.4 0-2.3-.7-2.7-2-.2-.5-.3-1.2-.4-2.1-.1-.9-.2-1.8-.2-2.7-.1-.9-.1-1.8-.1-2.7v-2.2c0-.5 0-1 .1-1.7.1-.6.2-1.2.5-1.6.3-.4.8-.9 1.5-1.3s1.5-.9 2.2-1.3c.8-.5 1.4-1 2-1.6.6-.6.9-1.3.9-2 0-.6-.1-1.1-.4-1.6-.3-.5-.6-.9-1-1.2-.4-.3-.9-.6-1.4-.8-.5-.2-1.1-.3-1.6-.3-1.3 0-2.3.2-3.1.6-.7.4-1.4.9-1.9 1.4-.5.5-1 1-1.5 1.4-.5.4-1 .6-1.8.6s-1.6-.3-2.2-.9c-.7-.6-1-1.3-1-2.1 0-1.3.4-2.5 1.2-3.4.8-.9 1.7-1.7 2.9-2.2 1.2-.6 2.4-1 3.7-1.2 1.2-.1 2.3-.3 3.3-.3m1.2 42.6c.8 0 1.5.2 2.1.6.6.4 1 1.1 1 1.9 0 .6-.1 1.1-.4 1.5-.3.4-.6.7-1.1 1-.4.3-.9.5-1.4.6-.5.1-1 .2-1.5.2-.8 0-1.5-.2-2.2-.6-.7-.4-1-1-1-1.8 0-.5.1-1 .4-1.5.3-.4.7-.8 1.1-1.1.4-.3.9-.5 1.5-.7l1.5-.1m-1.2-48.6c-1.4 0-2.9.2-4.6.5-1.8.4-3.5.9-5.1 1.7-1.9.9-3.6 2.2-4.9 3.8-1.7 2-2.6 4.5-2.6 7.2 0 2.5 1.1 4.9 3.1 6.6 1.7 1.5 3.7 2.3 5.9 2.3l-.2 1.2c-.1.8-.1 1.5-.1 2.2v2.2c0 1 0 2 .1 3.1s.1 2.1.3 3.1c.2 1.3.4 2.4.7 3.3 1 2.9 3.2 5 5.9 5.7l-.5.1c-1.1.3-2.2.8-3.2 1.5s-1.9 1.6-2.6 2.7c-1 1.4-1.5 3.1-1.5 4.8 0 3 1.5 5.6 4 7.1 1.6.9 3.3 1.3 5.1 1.3 1 0 2-.1 3-.4 1.1-.3 2.2-.8 3.2-1.4 1.1-.7 2-1.6 2.7-2.6 1-1.4 1.5-3.1 1.5-4.9 0-2.9-1.4-5.5-3.8-7-.9-.6-1.9-1-2.9-1.2 1.3-.4 2.5-1.1 3.5-2.1 1.1-1.1 1.9-2.5 2.3-4.1.3-1.1.5-2.3.6-3.6v-3.7c1.2-.8 2.4-1.7 3.4-2.6 1.2-1.2 2.3-2.5 3.1-3.8 1.1-1.9 1.7-3.9 1.7-6.1 0-2.5-.7-4.9-1.9-7.1-1.1-1.9-2.5-3.6-4.2-5.1-1.6-1.4-3.5-2.5-5.5-3.3-2.1-.9-4.3-1.4-6.5-1.4z" class="st4"/></g></svg>