<?xml version="1.0" encoding="utf-8"?>
<!-- Generator: Adobe Illustrator 19.2.1, SVG Export Plug-In . SVG Version: 6.00 Build 0)  -->
<!DOCTYPE svg PUBLIC "-//W3C//DTD SVG 1.1//EN" "http://www.w3.org/Graphics/SVG/1.1/DTD/svg11.dtd">
<svg version="1.1" id="critic" xmlns="http://www.w3.org/2000/svg" xmlns:xlink="http://www.w3.org/1999/xlink" x="0px" y="0px"
	 viewBox="0 0 257.3 257.3" style="enable-background:new 0 0 257.3 257.3;" xml:space="preserve">
<style type="text/css">
	.st0{fill:#0B8072;stroke:#004A41;stroke-width:3;stroke-miterlimit:10;}
	.st1{fill:#FFFFFF;}
	.st2{fill:#004A41;}
	.st3{fill:none;stroke:#0FA0B9;stroke-width:16;stroke-linecap:round;stroke-miterlimit:10;}
	.st4{fill:#FFFFFF;stroke:#0FA0B9;stroke-width:10;stroke-miterlimit:10;}
	.st5{fill:#223E52;}
	.st6{fill:none;stroke:#223E52;stroke-width:4;stroke-miterlimit:10;}
</style>
<circle id="critic-background" class="st0" cx="128.7" cy="128.7" r="103.9"/>
<g id="critic-brain">
	<g id="XMLID_27_">
		<g>
			<path class="st1" d="M113.6,129.2c1.8-0.9,3.5-1.8,5.2-2.9c1.3-0.9,2.5-1.3,3.5-1.3c2.7,0,4.8,4.8,3.5,6.8
				c-5.1,8.1-15.2,4-22.3,7.5c-6.4,3.2-9.9,12.9-2.7,17.5c0.8,0.5,1.5,0.7,2.3,0.7c0.7,0,1.5-0.2,2.3-0.6c1.1-0.6,2.6-2.6,3.7-2.7
				c0,0,0.1,0,0.1,0c1.4,0,3.8,2.6,5.1,3.4c1.6,1,3.2,1.2,4.9,1.2c1.5,0,3-0.2,4.6-0.2c0.2,0,0.4,0,0.6,0c0.5,0,0,7.8-0.1,8.6
				c-0.3,3.2-0.4,6.3-0.1,9.5c0-1.6,1.3-4.2,1.8-5.7c0.6-1.7,1.2-3.5,1.8-5.2c1-2.4,1.6-5.5,3.6-7.3c0.7-0.6,1.3-0.8,2.1-0.8
				c0.5,0,1,0.1,1.6,0.1c0,0,0.1,0,0.2,0c1,0,4.5-0.3,4.1-1.6c-1.5-4.8-6.1-7.8-11.4-7.8c-3,0-6.2,0.9-9.1,3
				c-1.9-0.8-0.8-3.8-1.5-5.4c4-2.4,8.1-3.9,12.4-3.9c3.2,0,6.4,0.9,9.6,2.8c2.3,1.4,3.1,4.2,5.6,5.1c1.5,0.6,3.5,0.8,5.7,0.8
				c5.3,0,11.5-1.6,13.9-4.7c4.6-6-3.9-19.2-10.7-19.2h-0.3c-1.2,0.5-3.2,1.3-4.7,1.3c-1.4,0-2.4-0.6-2.4-2.6c0-3,2.4-4.1,5.3-4.1
				c3.8,0,8.5,1.8,10.1,3.5c0.8-4,2.8-7.6,4.5-11.3c0.7-1.6,2.9-3.2,4.9-3.2c0.8,0,1.6,0.3,2.2,1c1.7,2.1-0.5,5.5-1.5,7.4
				c-2.7,5-7.2,11.9-1.2,16.5c1.5,1.2,3.6,1.7,5.6,1.7c2,0,4-0.4,5.7-1c2.9-1.1,7.8-3.6,7.6-7.3c-0.2-3.2-3.9-4.4-3.1-7.5
				c0.3-1.2,0.5-2.4,0.6-3.6c0.3-4-0.5-8.2-2.6-11.6c-1.4-2.4-4.4-5.8-7.5-5.8c-0.7,0-1.4,0.2-2.1,0.5c-1.1,0.6-1.9,1.1-2.7,1.1
				c-0.6,0-1.3-0.3-2.1-1.2c-4.6-4.8-4-14.3-12.1-15.5c-0.5-0.1-0.9-0.1-1.4-0.1c-4,0-7.3,2.6-9.5,5.8c-1.1,1.6-1.8,3.5-2.9,5.1
				c-1.9-0.8-4-3.4-5.5-5c-2.9-2.9-5.7-6.1-10-6.1c-0.5,0-0.9,0-1.4,0.1c-2.3,0.4-13,3.1-11.5,6.5c0.2,0.3,0.5,0.7,0.9,1.1
				c1.7,1.4,4.6,2,6.7,2.2c0.6,0.1,1.1,0.1,1.6,0.1c1,0,2-0.1,3-0.5c1.4-0.5,2.8-1.7,4.3-1.7c0.6,0,1.1,0.2,1.7,0.6
				c1.3,0.9,2.1,2.9,1.2,4.3c-1.6,2.6-4.6,1.4-2.9,5.2c1.6,3.4,6,7.9,5.1,11.8c-0.4,1.7-1.5,2.3-2.8,2.3c-1.7,0-3.7-1.1-4.5-2.5
				c-2.2-3.5-1.2-8.2-3.6-11.6c-2.7-3.9-8.3-5.3-13.8-5.3c-3.4,0-6.6,0.5-9.1,1.3c-3.5,1.1-7.6,3-9.9,5.9c-1.9,2.3-2.3,5.3-2,8.2
				c0.1,1.3,0.4,2.7,0.7,4c0.2,1,1.5,4,1.1,4.8c-1.7,3.5-3.8,7-4.6,10.8c-0.5,2.4-0.1,5.5,0.6,7.8c0.4,1.4,1.1,1.9,1.8,1.9
				c1.9,0,4.5-3.6,5.7-5c1.4-1.5,3.2-3.2,3.5-5.3c0.4-2.6-1.3-5-1.8-7.4c-0.4-1.9-1.2-5.8,1.1-6.9c0.3-0.2,0.7-0.2,1-0.2
				c2.6,0,3.6,5.3,4,7.1c0.3,1.4,0.2,5.8,1.9,6.3c0.3,0.1,0.7,0.1,1.1,0.1C109.8,131.3,112,130,113.6,129.2z"/>
			<path class="st2" d="M132.3,103.1c-1.7-3.8,1.3-2.6,2.9-5.2c0.9-1.4,0-3.4-1.2-4.3c-0.6-0.4-1.1-0.6-1.7-0.6
				c-1.4,0-2.8,1.2-4.3,1.7c-1,0.3-2,0.5-3,0.5c-0.5,0-1.1,0-1.6-0.1c-2.2-0.3-5-0.8-6.7-2.2c-0.5-0.4-0.8-0.7-0.9-1.1
				c-1.5-3.4,9.2-6.1,11.5-6.5c0.5-0.1,1-0.1,1.4-0.1c4.2,0,7.1,3.3,10,6.1c1.5,1.5,3.6,4.2,5.5,5c1.1-1.6,1.8-3.5,2.9-5.1
				c2.2-3.2,5.5-5.8,9.5-5.8c0.4,0,0.9,0,1.4,0.1c8.1,1.2,7.5,10.6,12.1,15.5c0.8,0.9,1.5,1.2,2.1,1.2c0.8,0,1.6-0.5,2.7-1.1
				c0.7-0.4,1.4-0.5,2.1-0.5c3.1,0,6,3.4,7.5,5.8c2.1,3.4,2.9,7.7,2.6,11.6c-0.1,1.2-0.3,2.4-0.6,3.6c-0.9,3.1,2.9,4.3,3.1,7.5
				c0.2,3.7-4.6,6.2-7.6,7.3c-1.7,0.6-3.7,1-5.7,1c-2,0-4.1-0.5-5.6-1.7c-5.9-4.6-1.4-11.5,1.2-16.5c1-1.9,3.2-5.3,1.5-7.4
				c-0.6-0.7-1.4-1-2.2-1c-2,0-4.2,1.7-4.9,3.2c-1.7,3.7-3.7,7.3-4.5,11.3c-1.6-1.7-6.3-3.5-10.1-3.5c-2.9,0-5.3,1.1-5.3,4.1
				c0,2,1,2.6,2.4,2.6c1.5,0,3.5-0.8,4.7-1.3h0.3c6.9,0,15.4,13.2,10.7,19.2c-2.4,3.1-8.6,4.7-13.9,4.7c-2.2,0-4.3-0.3-5.7-0.8
				c-2.5-0.9-3.3-3.7-5.6-5.1c-3.2-2-6.4-2.8-9.6-2.8c-4.2,0-8.4,1.5-12.4,3.9c0.7,1.6-0.4,4.7,1.5,5.4c3-2,6.2-3,9.1-3
				c5.3,0,9.9,3,11.4,7.8c0.4,1.3-3.1,1.6-4.1,1.6c-0.1,0-0.1,0-0.2,0c-0.6,0-1.1-0.1-1.6-0.1c-0.7,0-1.4,0.2-2.1,0.8
				c-2,1.8-2.6,4.9-3.6,7.3c-0.7,1.7-1.3,3.4-1.8,5.2c-0.5,1.5-1.8,4-1.8,5.7c-0.3-3.2-0.2-6.3,0.1-9.5c0.1-0.8,0.6-8.6,0.1-8.6
				c-0.2,0-0.4,0-0.6,0c-1.6,0-3.1,0.2-4.6,0.2c-1.7,0-3.3-0.2-4.9-1.2c-1.2-0.8-3.6-3.4-5.1-3.4c0,0-0.1,0-0.1,0
				c-1.2,0.1-2.6,2.1-3.7,2.7c-0.8,0.4-1.5,0.6-2.3,0.6c-0.8,0-1.5-0.2-2.3-0.7c-7.2-4.6-3.7-14.2,2.7-17.5
				c7.1-3.5,17.2,0.5,22.3-7.5c1.3-2-0.8-6.8-3.5-6.8c-1,0-2.2,0.5-3.5,1.3c-1.7,1.1-3.5,2-5.2,2.9c-1.6,0.8-3.8,2-5.8,2
				c-0.3,0-0.7,0-1.1-0.1c-1.7-0.5-1.6-4.9-1.9-6.3c-0.3-1.8-1.4-7.1-4-7.1c-0.3,0-0.6,0.1-1,0.2c-2.3,1.1-1.6,5-1.1,6.9
				c0.6,2.4,2.3,4.8,1.8,7.4c-0.4,2.1-2.2,3.7-3.5,5.3c-1.2,1.4-3.7,5-5.7,5c-0.7,0-1.4-0.5-1.8-1.9c-0.7-2.3-1.2-5.4-0.6-7.8
				c0.9-3.8,2.9-7.3,4.6-10.8c0.4-0.8-0.9-3.9-1.1-4.8c-0.3-1.3-0.6-2.6-0.7-4c-0.3-2.9,0.1-5.8,2-8.2c2.3-2.9,6.4-4.8,9.9-5.9
				c2.5-0.8,5.8-1.3,9.1-1.3c5.4,0,11,1.4,13.8,5.3c2.4,3.4,1.4,8.1,3.6,11.6c0.8,1.3,2.8,2.5,4.5,2.5c1.3,0,2.4-0.6,2.8-2.3
				C138.3,111,133.9,106.5,132.3,103.1z M192.7,101.1c-1.9-3.1-7.3-10.4-15.8-10.4c-0.5,0-1,0-1.4,0.1c0-0.1-0.1-0.2-0.1-0.2
				c-1.9-4.6-5.4-13.3-16-14.8c-0.9-0.1-1.9-0.2-2.8-0.2c-5.2,0-10.1,2.1-14.1,5.9c-3.2-2.9-7.6-6-13.9-6c-1,0-2,0.1-3.1,0.3
				c-3.4,0.6-14.6,2.9-18.4,10c-0.5,1-0.9,2-1.1,3.1c-1.9,0.3-3.7,0.7-5.3,1.2c-4.4,1.4-10.5,4.1-14.5,9.1
				c-2.3,2.8-4.8,7.7-4.1,15.2c0.2,1.9,0.6,3.7,0.9,5.1c0.1,0.4,0.2,0.9,0.4,1.4c-1.5,2.9-3.1,6.2-3.9,10
				c-1.2,5.5,0.2,10.8,0.8,12.9c1.4,4.4,4.3,6.9,7.3,7.9c1,6,3.8,10.6,8.1,13.3c2.3,1.4,4.9,2.2,7.5,2.2c2,0,4.1-0.5,6.1-1.4
				c1.6,1,3.3,1.7,5.2,2.2c-0.2,3.2-0.3,6.6,0.1,10.2c0.6,4.9,4.8,8.6,9.7,8.6c0.4,0,0.7,0,1.1-0.1c4.9-0.6,8.5-4.5,8.6-9.2
				c0.1-0.4,0.4-0.9,0.5-1.3c0.3-0.8,0.6-1.5,0.8-2.1c0.6-1.7,1.1-3.2,1.6-4.5c0.3-0.6,0.5-1.3,0.8-2c3.1-0.3,7-1.4,9.5-4.8
				c0.5-0.7,0.9-1.4,1.2-2.1c0.7,0,1.5,0.1,2.2,0.1c7.4,0,16.9-2.2,21.7-8.5c1.2-1.6,2.1-3.4,2.6-5.3c0.5,0,0.9,0,1.4,0
				c3.8,0,7-0.9,9.1-1.7c9.1-3.4,14.3-9.7,13.9-16.9c-0.2-3.4-1.6-5.9-2.7-7.5c0.1-0.7,0.2-1.5,0.3-2.3
				C197.2,112.2,195.7,106,192.7,101.1z"/>
		</g>
		<g>
		</g>
	</g>
	<line class="st3" x1="139.1" y1="131" x2="85.8" y2="170.3"/>
	<circle class="st4" cx="165.3" cy="113" r="33"/>
	<g>
		<ellipse transform="matrix(0.8687 -0.4954 0.4954 0.8687 -42.3282 94.68)" class="st5" cx="157.4" cy="127.2" rx="7.2" ry="5.4"/>
		
			<ellipse transform="matrix(0.8687 -0.4954 0.4954 0.8687 -32.8644 100.5422)" class="st5" cx="173.2" cy="112.3" rx="7.2" ry="5.4"/>
		<polyline class="st6" points="160.7,124.1 157.4,104.9 172,93 175.4,108.7 		"/>
	</g>
</g>
<g>
</g>
<g>
</g>
<g>
</g>
<g>
</g>
<g>
</g>
<g>
</g>
</svg>
