<svg xmlns="http://www.w3.org/2000/svg" id="left-brain" viewBox="0 0 232 232">
  <style>
    .st0{fill:#0F8072;} .st1{fill:#CCEAEB;}
  </style>
  <path d="M201.9 100.5c.2-1.1.3-2.3.4-3.4.7-9.4-1.5-18.6-5.9-25.9-2.9-4.7-10.9-15.5-23.6-15.5-.7 0-1.4 0-2.1.1-.1-.1-.1-.2-.2-.4-2.8-6.9-8.1-19.8-23.9-22.1-1.4-.2-2.8-.3-4.2-.3-7.7 0-15.1 3.1-21 8.8-4.8-4.4-11.3-9-20.7-9-1.5 0-3.1.1-4.6.4-5 .8-21.8 4.4-27.5 14.9-.8 1.5-1.4 3-1.7 4.6-2.8.4-5.5 1.1-8 1.9-6.6 2.1-15.6 6.1-21.7 13.5-3.4 4.2-7.2 11.5-6.1 22.6.3 2.9.9 5.5 1.3 7.6.1.6.3 1.3.6 2.1-2.2 4.3-4.6 9.2-5.9 15-1.8 8.1.3 16.1 1.3 19.2 2.1 6.6 6.4 10.2 10.8 11.8 1.5 8.9 5.7 15.8 12.1 19.8 3.4 2.1 7.3 3.3 11.2 3.3 3.1 0 6.1-.7 9.1-2 2.4 1.5 5 2.5 7.7 3.2-.3 4.7-.5 9.8.1 15.2.8 7.4 7.1 12.8 14.4 12.8.5 0 1.1 0 1.7-.1 7.2-.8 12.6-6.8 12.9-13.8.2-.6.5-1.4.7-1.9.5-1.2.9-2.3 1.2-3.2.8-2.6 1.6-4.7 2.4-6.7.4-.9.8-2 1.1-3 4.6-.5 10.5-2.2 14.2-7.2.8-1 1.4-2.1 1.8-3.2 1.1.1 2.2.1 3.3.1 11 0 25.2-3.3 32.4-12.7 1.8-2.3 3.1-5 3.9-7.8.7 0 1.4.1 2.1.1 5.7 0 10.5-1.3 13.5-2.5 13.6-5 21.3-14.4 20.7-25.2 0-4.8-2.1-8.6-3.8-11.1z" class="st0"/>
  <path d="M180.1 123.5c-2.5.9-5.5 1.5-8.4 1.5-3.1 0-6.1-.7-8.4-2.5-8.9-6.8-2.2-17.2 1.9-24.7 1.6-2.8 4.8-8 2.2-11.1-.9-1.1-2.1-1.6-3.3-1.6-2.9 0-6.2 2.5-7.3 4.9-2.5 5.5-5.4 10.8-6.7 16.9-2.5-2.5-9.4-5.2-15.1-5.2-4.4 0-8 1.6-8 6.2 0 3 1.6 3.9 3.6 3.9 2.3 0 5.2-1.2 7.1-1.9h.4c10.3 0 22.9 19.6 16.1 28.7-3.6 4.6-12.9 7-20.8 7-3.3 0-6.4-.4-8.6-1.2-3.7-1.4-5-5.5-8.3-7.6-4.8-2.9-9.6-4.2-14.3-4.2-6.3 0-12.5 2.2-18.4 5.8 1 2.4-.7 7 2.2 8.1 4.4-3 9.2-4.4 13.6-4.4 7.9 0 14.8 4.4 17 11.6.6 1.9-4.6 2.4-6.1 2.4h-.3c-.9-.1-1.7-.2-2.5-.2-1.1 0-2.1.2-3.1 1.2-2.9 2.7-3.9 7.4-5.3 10.9-1 2.5-1.9 5.1-2.8 7.7-.8 2.4-2.9 6.5-2.6 8.9-.6-4.9-.3-9.7.1-14.6.1-1.2.9-12.8.2-12.9h-.8c-2.3 0-4.6.3-6.8.3-2.5 0-5-.4-7.3-1.9-1.8-1.2-5.5-5-7.6-5h-.1c-1.8.2-3.9 3.2-5.6 4-1.1.6-2.2.9-3.4.9-1.1 0-2.3-.3-3.4-1-10.8-6.8-5.6-21.2 4-26.1 10.5-5.3 25.6.8 33.3-11.3 1.9-3-1.1-10.1-5.2-10.1-1.5 0-3.2.7-5.2 2-2.5 1.6-5.2 3-7.8 4.3-2.4 1.2-5.7 3.1-8.7 3.1-.5 0-1.1-.1-1.6-.2-2.6-.7-2.4-7.3-2.8-9.3-.6-2.8-2.2-10.8-6-10.8-.5 0-.9.1-1.4.3-3.5 1.6-2.4 7.5-1.7 10.3.9 3.6 3.4 7.2 2.7 11.1-.5 3.2-3.2 5.6-5.3 7.9-1.8 2.1-5.6 7.5-8.5 7.5-1.1 0-2-.8-2.7-2.8-1.1-3.4-1.7-8.1-.9-11.7 1.3-5.7 4.4-10.9 6.9-16.2.6-1.2-1.3-5.8-1.6-7.2-.4-2-.9-3.9-1.1-5.9-.4-4.3.1-8.7 3-12.2 3.5-4.3 9.5-7.2 14.8-8.8 3.7-1.2 8.6-2 13.6-2 8.1 0 16.4 2.1 20.5 7.9 3.5 5.1 2.1 12.1 5.3 17.3 1.2 2 4.2 3.7 6.7 3.7 1.9 0 3.6-1 4.2-3.5 1.3-5.9-5.3-12.6-7.6-17.7-2.6-5.7 1.9-3.8 4.2-7.7 1.3-2.1 0-5.1-1.8-6.5-.8-.6-1.7-.9-2.5-.9-2.2 0-4.2 1.8-6.4 2.5-1.4.5-3 .7-4.5.7-.8 0-1.6 0-2.4-.1-3.2-.4-7.5-1.2-10-3.3-.7-.6-1.1-1.1-1.4-1.6-2.3-5 13.7-9.1 17.2-9.7.8-.1 1.5-.2 2.2-.2 6.3 0 10.6 4.8 14.8 9.1 2.3 2.3 5.4 6.2 8.3 7.4 1.6-2.4 2.7-5.2 4.3-7.7 3.3-4.9 8.3-8.7 14.2-8.7.7 0 1.4.1 2.1.2 12.1 1.8 11.2 15.9 18.1 23.1 1.2 1.3 2.2 1.8 3.2 1.8 1.2 0 2.4-.7 4-1.6 1-.6 2.1-.8 3.1-.8 4.6 0 9 5.1 11.2 8.6 3.1 5.1 4.3 11.4 3.9 17.4-.1 1.8-.4 3.6-.9 5.3-1.3 4.7 4.3 6.4 4.6 11.2.1 5.6-7.1 9.4-11.5 11z" class="st1"/>
</svg>
