<svg xmlns="http://www.w3.org/2000/svg" id="right-brain" viewBox="0 0 232 232">
  <style>
    .st0{fill:#F7941E;} .st1{fill:#F8F6C0;}
  </style>
  <path d="M30.4 100.7c-1.7 2.5-3.8 6.2-4.1 11.3-.6 10.8 7.1 20.2 20.7 25.2 3 1.1 7.8 2.5 13.5 2.5.7 0 1.4 0 2.1-.1.8 2.9 2.1 5.5 3.9 7.9 7.1 9.3 21.4 12.7 32.4 12.7 1.1 0 2.2 0 3.3-.1.5 1.1 1.1 2.2 1.8 3.2 3.7 5 9.6 6.7 14.2 7.2.4 1.1.7 2.1 1.1 3.1.8 1.9 1.5 4 2.4 6.7.3.9.7 2 1.2 3.2.2.5.5 1.3.7 1.9.3 7 5.6 12.9 12.9 13.8.6.1 1.1.1 1.6.1 7.3 0 13.6-5.4 14.4-12.8.6-5.4.4-10.5.1-15.2 2.8-.7 5.3-1.7 7.7-3.2 3 1.3 6 2 9.1 2 3.9 0 7.8-1.1 11.2-3.3 6.4-4 10.6-10.9 12.1-19.8 4.4-1.6 8.7-5.2 10.8-11.8 1-3.1 3.1-11.1 1.2-19.2-1.3-5.8-3.7-10.7-5.9-15 .3-.8.5-1.6.6-2.1.5-2.1 1-4.7 1.3-7.6 1.1-11.1-2.7-18.5-6.1-22.6-6-7.4-15.1-11.5-21.7-13.5-2.5-.8-5.2-1.4-8-1.9-.3-1.6-.9-3.2-1.7-4.6-5.7-10.5-22.4-14.1-27.5-14.9-1.5-.3-3.1-.4-4.6-.4-9.3 0-15.9 4.6-20.7 9-5.9-5.6-13.3-8.8-21-8.8-1.4 0-2.8.1-4.2.3C69.3 36.2 64.1 49.1 61.3 56c-.1.1-.1.2-.2.4-.7-.1-1.4-.1-2.1-.1-12.6 0-20.7 10.8-23.6 15.5-4.5 7.3-6.6 16.5-5.9 25.9.6.7.7 1.9.9 3z" class="st0"/>
  <path d="M52.1 123.7c-4.4-1.6-11.6-5.4-11.3-10.9.3-4.7 5.9-6.5 4.6-11.2-.5-1.7-.8-3.5-.9-5.3-.4-5.9.7-12.3 3.9-17.4 2.2-3.5 6.5-8.6 11.2-8.6 1 0 2 .2 3.1.8 1.6.9 2.8 1.6 4 1.6 1 0 2-.5 3.2-1.8 6.9-7.2 5.9-21.4 18.1-23.1.7-.1 1.4-.2 2.1-.2 6 0 10.9 3.8 14.2 8.7 1.6 2.4 2.7 5.2 4.4 7.7 2.9-1.2 6-5.1 8.3-7.4 4.3-4.3 8.5-9.1 14.8-9.1.7 0 1.4.1 2.2.2 3.5.6 19.4 4.7 17.2 9.7-.2.5-.7 1.1-1.4 1.6-2.6 2.1-6.8 2.9-10.1 3.3-.8.1-1.6.1-2.4.1-1.5 0-3-.2-4.5-.7-2.2-.7-4.2-2.5-6.4-2.5-.8 0-1.6.2-2.5.9-1.9 1.4-3.1 4.3-1.8 6.5 2.4 3.9 6.8 2.1 4.2 7.7-2.3 5.1-9 11.8-7.6 17.7.5 2.5 2.2 3.5 4.1 3.5 2.6 0 5.5-1.7 6.7-3.7 3.3-5.3 1.8-12.2 5.3-17.3 4.1-5.9 12.4-7.9 20.5-7.9 5 0 9.9.8 13.7 2 5.2 1.7 11.3 4.5 14.8 8.8 2.8 3.5 3.4 7.9 2.9 12.2-.2 2-.6 4-1.1 5.9-.3 1.4-2.2 6-1.6 7.2 2.5 5.2 5.6 10.4 6.9 16.2.8 3.6.2 8.2-.9 11.7-.7 2-1.6 2.8-2.7 2.8-2.9 0-6.7-5.4-8.5-7.5-2.1-2.3-4.7-4.7-5.3-7.9-.7-3.9 1.9-7.5 2.7-11.1.7-2.8 1.8-8.7-1.7-10.3-.5-.2-1-.3-1.4-.3-3.9 0-5.4 7.9-5.9 10.6-.4 2.1-.2 8.6-2.8 9.3-.5.2-1.1.2-1.6.2-3 0-6.2-1.9-8.7-3.1-2.7-1.3-5.3-2.8-7.8-4.3-2-1.3-3.7-2-5.2-2-4.1 0-7.1 7.2-5.2 10.1 7.6 12.1 22.7 6 33.2 11.3 9.6 4.8 14.8 19.2 4 26.1-1.1.7-2.3 1-3.4 1s-2.2-.3-3.4-.9c-1.7-.8-3.8-3.9-5.6-4h-.1c-2.1 0-5.7 3.9-7.6 5-2.4 1.5-4.8 1.9-7.3 1.9-2.2 0-4.5-.3-6.8-.3h-.8c-.7 0 .1 11.7.2 12.9.4 4.9.7 9.7.1 14.6.3-2.4-1.8-6.6-2.6-8.9-.8-2.6-1.7-5.2-2.8-7.7-1.4-3.5-2.4-8.2-5.3-10.9-1-.9-2-1.2-3.1-1.2-.8 0-1.6.1-2.5.2h-.3c-1.5 0-6.7-.5-6.1-2.4 2.2-7.2 9.1-11.6 17.1-11.6 4.4 0 9.2 1.4 13.6 4.4 2.9-1.1 1.2-5.7 2.2-8.1-5.9-3.6-12.1-5.8-18.4-5.8-4.7 0-9.5 1.3-14.3 4.2-3.4 2.1-4.7 6.2-8.3 7.6-2.2.8-5.2 1.2-8.6 1.2-7.8 0-17.2-2.3-20.8-7-6.9-9 5.8-28.7 16.1-28.7h.3c1.8.7 4.8 2 7.1 2 2 0 3.6-.9 3.6-3.9 0-4.5-3.6-6.2-8-6.2-5.7 0-12.6 2.7-15.1 5.2-1.2-6-4.1-11.3-6.7-16.9-1.1-2.4-4.4-4.9-7.3-4.9-1.2 0-2.4.5-3.3 1.6-2.5 3.1.7 8.2 2.2 11.1 4 7.4 10.7 17.8 1.9 24.7-2.3 1.8-5.3 2.5-8.4 2.5-3 0-6-.6-8.5-1.5z" class="st1"/>
</svg>
