<svg xmlns="http://www.w3.org/2000/svg" id="vs" viewBox="0 0 128 128">
  <style>
    .st0{fill:#FFFFFF;} .st1{font-family:&apos;CabinSketch-Bold&apos;;} .st2{font-size:48px;}
  </style>
  <text id="vs-text" transform="translate(35.44 77.454)" class="st0 st1 st2">
    VS
  </text>
  <g id="vs-top">
    <path d="M104.5 36.4c.2 0 .3.2.2.3.4 0 .4.2.6-.2.3-.1.5.3.1.3l.8.1-.4-.2c.2-.2.6.3.9.1l-.8-.3.1-.1c-.2 0-.5-.1-.6-.2 0 0 .1-.1.2-.1-.9-.4-.4.4-1.2.2l.1.1zm-.5-1l-.5.2-.5-.3c-.1.1-.5.1-.3.3h.3c-.2.2-.8-.1-.7.2.4.1.5.2.8.1.4.2.6.3.8.5.1 0 .2-.2.4-.1h-.1l.1-.4c-.2 0-.3 0-.4-.1l.8-.2c-.1-.4-.8-.5-1-.7.3.4-.2 0 .3.5zm.3.9zM55.6 31c-.1 0-.2.1-.2.2L57 31c-.1-.1-.5-.2-.2-.3-.1-.1-.5 0-.6.2l.1-.2c-.3.2-.6-.2-.4-.3l-.9.9c.3.1.1-.3.6-.3zm-31.2 7c.2-.1.2-.2.1-.2s-.1.1-.1.2zm30.3-6.4l-.3.3.3-.3zm1.9-4.2l-.1.1s0-.1.1-.1zm-8.8 5.9c0 .1 0 .1 0 0-.1.1 0 .1 0 0zm13.1-7.6l-.7.3c.1-.1-.3-.1-.1-.2-.1 0-.3.1-.2.1h.1c-.4.4-.1.5-.8.8.4.2.6 0 .8-.2.1 0 .1 0 .2-.1l.6-.5.1-.2zm-28 7zm0-.1v.1c0-.1.1-.2 0-.1zm21.9-1.3c0 .1 0 .1-.1.2l.2-.2h-.1zm.4-.8l.6-.1.2-.2c-.2.1-.5.2-.8.3z" class="st0"/>
    <path d="M48.7 33.4c-1.1.2.3-.4-.3-.4-.3.1-.4.3-.6.4.9-.3 0 .7.9.4-.1.4-.6.5-1 .4-.4-.3.3-.3.3-.6-.4.1-.3.2-.4.4-.6 0-1.2.6-1.6.2-.4.2-.4.3-.6.5 0 .4.7.1.9.3l-.1-.1h.4c-.4-.1 0-.4.2-.4.1 0 .4-.1.4 0l-.2.1c.3.1.5-.3.9-.2 0 .1-.1.1-.1.2.3-.3.6-.3 1-.6l-.2.4c.3-.4 1.2-.4 1.8-.3-.1-.1-.2-.1-.1-.2.3-.1.6.1.5.3.3-.3 1.3.1 1.7-.4l1-1 1-1c-.1.1-.2.1-.2.1-.2-.3-.3-.3 0-.6-.3.2-.2.4-.7.5.2-.2.2-.5-.3-.5-1.2.4-1.9 1.5-2.9 2-.1-.2-.9-.1-1.4-.1.1-.3.4-.4.8-.5-.2 0-.6.1-.8.1l-.3.6zm2.7-1.2c-.1 0 0 0 0 0zm-1.7.6h-.1.1zm4.7-2l.2-.2c0 .1-.1.1-.2.2 0-.1 0 0 0 0zm.3.4v.1h.1s0-.1-.1-.1zm-10.9.8l-.1.1c.1 0 .1-.1.1-.1z" class="st0"/>
    <path d="M47.4 33.2c.4-.1 0-.4.6-.4h-.2c.4-.2 1.1-.2 1.6-.3 0 .2.3.1.3.4.3-.1.7-.2.8-.4.2 0 .5-.2.8-.1-.1-.1.3-.5-.3-.3.1 0 0-.1.1-.1-.4-.1-.6.2-.9.3-.2-.1.3-.3.1-.3-.4.2-1.5 0-1.4.5-.3.1-.4 0-.5-.1-.4.6-2 0-1.9.7.2-.1.5-.1.8-.3l.1.4zm6.3-2.3zm5.4 1.6l-.1.5c-1 .2-1.3.1-2.2.1-.1-.1 0-.1.1-.1-.6.1-1.5.1-1.9.3-.2 0-.7-.1-.5-.2-.1 0-.2.1-.3.1 0-.2.2-.1.2-.2h-.1c.1-.1-.2-.5.5-.6.3.4-.5.1-.3.5.2 0 .2-.2.2-.2.3 0 .3.1.3.2.1-.1.5 0 .6-.2.5-.1 0 .3.4.3l.2-.4h.6c.9-.2-.2-.7.8-1-.1.2.3.6.8.6-.3 0-.8.4-1.1.3.5.3-.7.1-.4.5.2-.2.6-.3 1-.2h-.1c.3 0 .6-.4 1.1-.3.2 0 .2.1.2.2-.1-.2 0-.3 0-.2zm-.5.1h-.3c.1.1.2.1.3 0zm41.1 1.2c0 .1 0 0 0 0zM71 27.7zm4.5-1l.3-.1c-.1 0-.2.1-.3.1zm22 6.3zm-13.6-4l.1.1c.1 0 0 0-.1-.1zm-8.5-2.3zm-6.2-.3h-.1.1zm.2 1.2h-.1.1zm-6.6-1l-.3.1c.2-.1.2-.1.3-.1zm5.9.7s.1 0 0 0zm32.1 8.3s-.1 0 0 0zm.7-.4zm-14-4.8c.1.1.2.2.1.2.1 0 .2-.2-.1-.2zm11.2 7.2c.1 0 .1-.1.2-.1-.1.1-.2.1-.2.1zm.2 0h.2c-.1-.1-.2-.1-.2 0zM85 33.5zm16.9 1.9c.1-.1 1.1.1.3-.3.1-.3.5 0 .8.1-.1-.1.1-.2.1-.3h-.4c0-.2.3-.2.4 0-.2-.2.4-.1.1-.4-.8-.2-1.4-.3-2 0 .5.1 1 .2 1.3.4l-.2.2c-.3-.4-.6-.3-1-.5l.8.5c.3.4 0 .3-.3.2 0 0 .1 0 .1.1zm-1.4 2s.1 0 0 0zm-37.7-5.3l-.1.1c.1-.1.2-.1.1-.1zm37.7 3.9c-.1 0-.1 0 0 0zm-35.7-3.9zm.6-5.9c-.1 0 0 0 0 0zm-.6 5.8s0 .1 0 0c0 .1 0 0 0 0zm9.3-.4s0-.1-.1-.1c.1 0 .1.1.1.1zm-1.8-.6zm15-1.8h-.2c0-.1.1 0 .2 0zm-22.5 2.9c-.1 0-.1 0 0 0-.1 0-.1 0 0 0zm12.3-1.5v.1zm1 .3c-.1.1-.1.1 0 0 .3 0 .9.2 1-.1-.1 0-.7-.3-.6-.4-.3 0-.6-.2-.7-.2.4.2 0 .2-.3.3-.2-.1.1-.2-.1-.3h-.6l.5.1-.2.3h.1c.8 0 0 .4.9.3zm-.1.1c-.1 0-.1 0-.1.1 0 0 .1 0 .1-.1zm3.3 1h.2-.2zm-24.9-1.7c0 .1.5.2.5 0h-.5zm34.3 2.5c-.1 0-.1 0-.2-.1 0 .1.1.1.2.1z" class="st0"/>
    <path d="M78.7 30.4c-.1 0-.1 0-.2.1.1 0 .1 0 .2-.1zm11.9 2.9c.1.1.1.2.1.3h.4c-.2-.1-.4-.2-.5-.3zm.5.2z" class="st0"/>
    <path d="M56.2 30.2H56h.2-.5v-.1h-.1c-.3.2-.9.5-1.1.6-.2.1-.5.2-.7.2.2 0 .4-.1.3-.2-.4-.1-.6-.5-1.2-.1h.4l-.8.5c-.3-.2.4-.3.5-.4-.6.3-1.2-.3-1.5.2-.1-.2-.2-.6-.6-.6.3.2-.2.2.1.5-.1.2-.5 0-.5.2v-.1c-.8-.3-.9.3-1.2.6-.8.2-1.3.1-2 .2-.1-.2-.3-.6-.6-.5-.1.2-.7.4-.7.7.5 0 .4-.3.7-.4.3.3.1.3.4.4-.3-.1-1.2.3-1.6.1l.1-.1c-.5-.1-.7-.7-1.4-.2l-.4.3v-.1c-.6.1-.5-.3-1.2.1 0 0 0-.1.1-.1-.4-.1-.8.3-1 .4-.2-.2 0-.2.1-.4-.7 0-1.4.6-1.7 1h-.5c.2-.2.5-.5.4-.6-.2.1-.2.2-.5.2 0-.2.1-.3.3-.6-.8-.1 0 .6-.6.2-.2.1-.3.3-.3.5l-.5-.1c0 .2-.5.4-.8.5 0 .1.3.2.4.1 0 .2-.3.4-.5.4-.2-.5-1.4.4-1.3-.2-.9.4-2.3.9-2.9 1.3-.3-.1-.7.1-.5-.2-.8.2-1 .9-1.9 1-.1 0 .3-.1.3-.3-.4.4-1 .1-1.7.5.1-.1.1-.2.1-.2 0 .1-.3.3-.4.4-.1 0 .1-.1 0-.1-1.6.3-2.5 1.4-4 2 .4-.2.5-.5.4-.7l-.4.2c-.1.2-.4.4-.6.6-.1 0-.2 0-.1-.2-.9.1-1 1.1-2 1.4l.4-.6.4-.6-.4-.1.4-.5c-.4 0-.5.5-.6.3 0-.1.2-.2.2-.3-.3.1-.3.2-.5.4.4-.7 1.6-1.3 2.2-1.7.1-.1 0 .1 0 .2.3-.1.5-.1.8-.3.1-.3-.2-.1-.4 0 0-.2 0-.2.2-.3.1.2 1.1-.3 1.4-.1 1-.5-.4-.5.6-.8l.4.1c.5-.4 1.2-.9 1.8-1l-.1.1c-.2.2-.1.2 0 .2.5-.1.9-.5 1.2-.4.5-.5 1.3-1 1.9-1.3.3.3-.8.5-.9.8l.6-.2c-.4.1-.5.3-.6.6.5-.1.6-.4 1.1-.7 0 .1.1.1.3.1v-.3h.1l.8-.4c-.2 0-.3-.2-.5-.2.1.1-.1.2-.3.3.2-.2-.3-.1-.3-.2.5-.1 1-.3 1.3-.5l.2.2c.4-.1.9-.3 1.2-.4l-.1.1c.5-.1 1-.3 1.5-.2.4-.4.9-.7 1.3-1.1.1-.3 1.5 0 1.9-.5l-.5.5c.4 0 .6-.5.7-.2-.8.1.1.2-.2.4.4-.1.7-.2.9-.4-.6.1.1-.5-.5-.2.4-.3 1-.6 1.6-.6 0 .1.1.2.3.2l.1-.2c.3 0-.5.3.1.3.5-.4 1.7-.1 1.8-.8.5.2-.7.4-.1.6-.3.3-.9.1-.9.5.3-.2.2.2.4.2l.4-.3H44c.6-.4 1.7-.5 2.5-.7.7-.4 1.1-.9 2-1-.2.2.8.1.2.5.4.1.8-.1.8-.3h-.4c.2-.2.7-.2.9-.2-.1 0-.1 0-.1.1.4 0 .2-.2.5-.3.1.2.7 0 1 0l.4-.4c-.2.2.4 0 .5.2.3-.2.5-.4 1-.4-.2.1.4.1.5.3.8.1 1.2-.7 2-.4 0 .1-.2.2.1.2.2-.1.5-.1.6-.1.1 0 .1 0 .1-.1.3-.2.4-.5 1-.7-.1-.2-.6-.1-.8 0l-.1.6c-.2-.4-.5.1-.7 0 .3-.5 1.4-.4 2-.7-.4-.3-1.2-.3-2-.2l.3.1h-.4l.4.2c-.4 0-.7.1-1 .1.4 0 .6.3.3.3-.4-.2-.4.2-.8.2.2 0 .4 0 .3.1-.7-.2-.8 0-1.4-.3.1.4-.7.1-.8.4h.3l-.6.3c-.6-.3.4-.4-.4-.5-.8 0-.7.5-1.3.6.2-.3.6-.5 1.1-.6l-.3-.1c.1-.2.8-.2 1.1-.2-.5.3.3.1.5.3 0-.2-.3-.2.1-.4-.4 0-.4.1-.9 0 1.1 0 .9-.9 1.8-.8-.4.1.2.3.2.4.2 0 .6-.1.8-.2l-.2-.3c.5-.2.8.5 1.4.1.1-.2-.6 0-.4-.1.8-.3 1.2.2 1.9.4 0-.1 0-.3.3-.5-.1.2.1.3-.2.5.3.1.5-.1.8-.2-.5-.1.2-.3.3-.4.3 0-.1.2-.2.3.2.1.5.3.6 0 0 .2-.6.6-1 .6h.3c-.2.1-.2.1-.5.1.3.2.3.3.2.5v-.1c-.2-.1-.4 0-.3.1-.2.3.3.2.5.3l.3-.1 1.1-.9c.5-.1.7.1 1.1.2l.1-.2c.4 0 .8.1.6.4 0-.1-.1-.1-.2-.1 0 0 0 .1-.1.1.4-.1.7-.1.8-.1-.8.4 0 .4-.2.9l.8-.1c-.5-.1 0-.2.2-.3 0 .2.6 0 .9 0v.1c.2.1.7.1 1 0 0-.1.4-.5.6-.7-.5-.1-.2-.2-.3-.3h.2c.1-.1-.1-.1-.1-.2-.6.1-1.2.2-1.4.5.2.2.3-.2.5 0-.3.2-.6.2-1.1.2l-.2-.2-.5.1c.2-.1.1-.3.6-.4-.1-.2-.5 0-.8 0l-.2.3c.1-.2-.6-.2-.1-.4l.8-.2-.2-.2.6-.1-.2.1c1-.2.3.5 1.3.2.3-.3.7-.4 1.3-.3-.5 0-.1.2-.2.4.5.2.6-.1.9-.2.1.2.2.3-.2.3-.1.4.6 0 .6.3 1.4.1 1.2-1.1 2.8-.6l-.2.2c1-.1 1.6.1 2.6 0l.7.4c-.2 0-.7.3-.5.5-.3-.4-.7-.3-1.1-.5 0 .1.1.2.2.2-.2 0-.3-.2-.7-.1 0 .1.3.2.1.2l-.4-.3c-.6.1-.3.6-1 .4.1-.2.4-.5.7-.5-.3-.1.4-.1.1-.2-.5.3-.7 0-1.3.2.1 0 .1-.1.2-.1l-.8-.2c.2.2-.7.2-.6.4.9.2.6 0 1.7.2-.3 0-.7.3-.9.6h-.1c-.2.3 0 .3 0 .8.5-.3.8 0 1.3-.2.1-.3-.3-.4-.6-.3l.5-.1-.1.1 1.2.2c-.2 0-.3.1-.5.3.2 0 .3.1.5.2 0-.3 0-.4.2-.4.8.1 1.2.4 1.5.7h.1c-.1-.3.6-.4.9-.6 0 .3.4.2.6.4.2-.3 0-.7-.2-1-.6.2-.3.2-.6.6 0 0-.2 0-.4.1s-.4.1-.4.1l.2-.2c-.4-.1-.9.2-.8-.1.2-.2.6 0 .9-.2l-.3-.1c.5-.3.2.3.9.2-.2-.3.1 0 .3-.2-.2-.2-1.1 0-.9-.5.3-.2 1 .7 1.5.2.6.1.9-.1 1.1-.2.2.2.6 0 .9 0v.1h.4c-.2.2-.5-.1-.8-.1v.2c-.4-.3-.7.1-1 .2.5-.2 1.3.2 1.4-.2l.2.3.1-.1c.2.2-.1.5-.5.5-.1-.1-.1-.1-.1-.2-.2.1-.4.3-.8.1l.3-.1c-.6-.1-1.1-.1-1.3.2.8.2 1.6.3 2.3.4.3-.5.6-.8.8-1.3.5 0 1.2 0 1.7.2l-.1.1c.2.1.4.1.6 0 .2.2-.2.2 0 .3l.8-.1c-.1.2-.7.1-1 .1.1 0 .2 0 .1-.1-.3-.1-1 .2-1.1-.2-.2 0 .4-.2-.2-.3-.4-.2-.5.1-.6.2 0 .1.6.3.3.4.3 0 .4-.1.8 0-.3 0-.7.2-.8 0-.6.2-.6.8-.3.9 0-.2 1.1-.1.4-.5.4-.2 1-.1 1.4-.2h.6c-.1.1-.3.1-.3.2l.8-.3c-.5.2.2.2.4.3.1-.2.4-.3.2-.4-.3-.2-.2.1-.5.1l.5-.3.3-.2c.6.1-.3.5.4.4v-.4c.8.2 1.8.8 2.4.8-.2.2-.3.5-.1.7-.2-.1-.7-.2-1.1-.2-.1-.1.5-.3.9-.2-.1-.6-1 .1-1-.4-1-.4-.8.4-1.6-.1-.1.3-.3.1-.3.3.2.4 1.1.2 1.6.5-.1 0-.2 0-.2.1.4.2.5.1.8.1.5-.2.3.3.5.4.1 0 .5.1.5-.1l.5.3v-.3c.3 0 .3.2.6.1l.1-.3-.9.1c.4 0 .1-.2.6-.2-.5.2.3.2.3.5l.3-.1-.1.1c.2.2.3 0 .6 0-.3-.2-.5-.4-.9-.3.3-.1.9-.1 1.1-.1.3 0 .5.2.8.3-.6 0 0 .8-1 .4h.1c-.1-.4-.7-.1-.9 0 0 .2-.2.2.2.4-.1-.1.4-.3.8-.1l-.2.4.6.2h-.1c.2.3.6.1 1 .3.3-.1 1.4.3 1-.3.3.3.7.1 1.1.1l-.4-.3c.6-.1.4 0 1-.3 0 .1.1.2 0 .3.8.2 1.8.7 2.4.5.5.2.5.7 1.3.7.2 0 0-.4.5-.1 0 0-.6.2 0 .3.5-.2.9.4 1.5.3.2.2.7.3.6.5-.4-.2-1-.3-1.2-.2.1-.1-.3-.2.1-.3-.6-.4-.5 0-1-.3-.1.1.2.4.4.3-.1.3-1.2-.2-.8.4.6.2 1-.4 1.4.1-.3.1-.6-.1-.9.1l.4.3.4-.1c.7.5.8-.1 1.6-.1-.3-.3.3-.5 0-.8.5.1.8.2.7.6-1 0-.2.3-1.1.4.1.2-.3.4.1.6.6-.1-.1-.3.5-.3v.1c.3-.1.3.1.6 0h-.1c.3.3.5-.1.7.2 0-.3.3-.1.5-.2-.3-.2-.3-.6-1-.8-.1.2-.1.3-.4.3l.4.1c-.1 0-.2 0-.3.1l-.4-.2c.6 0 .4-.3.7-.4.4.2.4.1.7.2-.1.3.7.8 1.2 1.2-.1 0-.2-.1-.2-.1-.4 0 .2.3.2.4h.3c-.1 0-.2 0 0 .1.4.1.5-.2.9-.1 0 .2-.4.3-.2.4 0 .2.2.6.7.7h.3l.3.3c-.4.2-.5-.3-.9-.2l-.1.2c-.2-.1-.6-.1-.7 0 .3.2.4.1.8.2 0 .2-.3.2-.4.2l.1-.1c-.4-.4-.7 0-1.3-.3-.1 0 0 0 0-.1-.5.1-.8-.4-1.4-.3l.2-.1c-.3 0-1 0-1.6.1v.1c0 .1-.2 0-.3-.1-.3 0-.7.1-.9.1.1.1.1.2.2.2.1-.1.6.2.6-.1.2.2.7.1.8.3-.3-.3.3-.2.4-.3.1.2.5.2.4.4 0 .1-.1-.2-.3-.1-.4.1.6.4.1.5.6 0 1.3.4 1.9.4l-.3-.2c.2.1.8.3.8.4-.2 0-.4-.1-.7-.2-.1.2.6.2.5.4l.8-.2-.3-.1c.2-.1.8.3 1.2.5-.4.2-.7-.3-1.2-.3-.4 0 .1.4-.3.4.1.1.3.2.4.1l.1.1c-.4.2-1-.1-1.6 0 .1 0 .1 0 .1-.1-.3-.2-.6-.4-1-.4.1.2.2.1.3.1 0 .1-.3 0-.5 0 .3.2 0 .2.2.3-.2 0-.4-.1-.6-.2-.1-.2.2-.1.2-.3-.3 0-.3-.4-.7-.4.5.2-.2.3-.4.3h.1c-.2.1-.4.1-.4-.1.2 0 .4.1.4-.1-.1 0-.3-.1-.4-.1l.2-.1-.7-.2c-.2.1-.4.3-.6.5-.1-.2-.4-.1-.5-.1h.1c-.3-.2-.9-.3-1-.2-.2-.2 1.8-.5.2-.8-.6-.2-.5.4-.9.4v-.1c-.2-.1-.3.1-.5.1.1.1.3.2.4.1-.1.2-.5-.2-.7-.1.3-.2-.4-.3-.2-.4-.4-.3-1-.2-1.4-.1-.2-.5-.6-.1-1.1-.4.1 0 .2 0 .4.1.4-.2-.5-.3 0-.4-.1 0 0 .1.1.1.2 0 .4 0 .4-.2l-.7.3h.2l-.6-.5v.2c-.4-.2-.8-.3-1.2-.4-.4-.1-.8-.1-1.2-.2-.3.7-1.8-.1-2.4.2.2-.2.3-.5.3-.7.1 0 .5-.2.7-.1 0 .1.3.3.1.4.8.1 0-.3.2-.5-.9-.1-1.5.2-2.1.2v-.1l-.4.1c.3.1.2.5-.2.3h.1c-.2-.2-.8-.1-1.2-.2l-.3.1c-.4-.1-.3-.5-.4-.8-.6-.1-1 .1-1.5.2-.2-.2-1.1-.4-.6-.5-.6.1-.6 1.1-1.5.4l.3-.1c-.9-.1-2.3.1-2.7-.1.4-.6-1.1-.8-1.2-1.4 0 .1-.3.2-.4.2-.1-.1-.2-.2-.3-.1.3.2-.3.6.4.5-.4.4-.9.7-1.6.6v-.3l.6.1c0-.2.3-.1.4-.2-1.1-.3.2-.6-.9-.7-.1.2 0 .1-.4.1.1 0 .2-.2 0-.2l-.2.2c-.4-.5.7-.2.4-.6.5-.2 1.2-.2 1.1-.5-.7-.2-.7.5-1.5.3l-.1-.1c-.3.1-.3.3-.5.4 0-.1-.1-.1-.2-.2-.5.3-.8.4-1.2.7 1.1-.2.9.3 2.1.1-.2.1-1 .1-1.1.5v-.3c-.4.1-.8.2-1.2.1l.3-.1c-.6.1-1-.5-1.5 0h.4c-.3.1-.7.1-1.1 0l-.7.4c0-.1-.4-.2-.2-.4-.5-.2-.8.1-1.1.2-.5-.3.5-.1.5-.5-.7-.2-1.5-.1-1.9.2.1.1.2.1.2.2 0-.1-.3-.1-.5-.1l-.1.2c-.3-.1-.2-.2 0-.3-.3 0-.6.3-.8.1.4-.2 1 0 1.2-.2-.9.2-.9-.5-2.1-.3 0-.1.2-.2 0-.2-.5.1-.1.4-.3.5.4-.1.6 0 .8.2l-.1.1c0-.1-.3-.1-.3-.1l-.1.3c0-.3-.4-.5-.7-.4.3.2.2.2.3.6-.4.3-.5-.3-1 0 0-.1.5-.2.1-.3-.3 0-.3.2-.5.3.2-.3.2-.5.4-.8.6 0 .2 0 .8-.1l-.5-.2c.5 0 .3-.3.4-.4-.8-.3-.6.4-1.1.3-.2.2.5 0 .1.2-.5 0-.1.2-.6.3l.1-.1c-.2-.2-.3 0-.5.1s.3.9-.6.9c0-.1.1-.1.1-.2l.8-2.2h-2.9c-.3-.4.7-.4.6-.6l.5.1c0 .2-1 .1-.5.4.8-.2 1.2 0 2-.4-.3-.4-1 .1-1.6-.2.2 0 .4 0 .6-.1-.5 0-1 0-1.6-.1l-.1.1c.4 0 .6 0 .7.1-.5 0-.9.3-.9.6h.1l-.2.1h-.5zm-31.1 7v-.1s.1 0 0 .1zm40.7-8.3c-.7-.1-1.3-.1-2-.2 1.1.6 1.9 1.1 0 1.1h-.1c.2.1.7.1 1.1 0 .3-.2 1.4-1 1.4-1.1-.1-.2-.3 0-.5-.1l.1.3zm.5 1.1c.4.1.3-.1.4-.2h-.4v.2zm.3-.3s-.1-.1 0 0zm-7.3-.2s.1 0 0 0h-.2.2zm.8.3l.1-.2h-.3l.2.2zm2.4.7c.2-.3.7-.3.7-.6 0-.1-.1-.1-.2-.1h-.4s0 .1-.1.1c.2 0 .3.1.2.3-.4-.4-.3.3-.8.2-.1.2.5.2.6.1zm31.9 3.9s0 .1.1.2l-.3.1c-.5-.2-.8-.8-1.3-.5-.2-.2-.2-.4-.3-.6.1 0 .2.1.3.1 1.3-.2.4.8 1.5.7zm-5.7-2.2c.1 0 .1-.1 0 0-1.2.3-2.2.2-2.8.1.1.2.6.5.8.7l-.3.2-.1-.2-.5.1c.1.2.4.2.6.4 0 0 .8-.2 1-.3l-.4-.3c.1.1.9.2 1.2.2 0-.1-.4-.4-.6-.2 0-.2.6-.1.2-.4.5-.1 1.2.2 1.4.4v.3c.3.2.3-.3.7 0-.5-.1 0 .4-.4.3.1.2-.1.3.3.4.4-.3.4.4.8.1.2.2-.3.2.1.4.5-.1.6-.2.7-.5-.4-.2-.6.2-1 .1l.9-.3c-.1-.1-.2-.1-.3-.2.2 0 .3 0 .4-.1.1 0 .2-.1.2-.1-.4-.1-.8-.2-.8-.4l.1-.1c-.1-.2-.4-.1-.5-.1-.4-.1-.8 0-.8-.2l.2-.1c-.4-.1-.5-.1-1.1-.2zm-15.5-3c.2.6.5 1.1 1.9 1.2H75c.6.4 1.4-.3 2.2.2-.4.2-.4.1-.9.6l.4-.1c-.2.3.3.2.6.2l-.3.3c-.2-.1-.7-.2-.7-.1.1 0-.6-.5-1-.5 0 .2.9.3.5.6.4-.1.4.1.7.1-.4.1-.1.3-.4.5h.6c0 .1-.9.1-.4.4.2-.1.8.1.9-.1v.1c.4.1.2-.3.7-.1 0-.1-.1-.2-.3-.2-.2 0-.2.2-.6.2-.1-.2.4.1.2-.3-.1-.2-.9 0-.6-.3l.4.1c0-.3.4-.2.4-.4.3-.1.5.3.8.1.1-.2 0-.5.4-.3.3.4 1.3.5 1.7.5 0 0 .1 0 .2-.1h.2c0-.2-.6-.1-.4-.3h.6l-.1.1c.2.1.4 0 .5 0-.2.2-.6 0-.5.3.2.1.3.2.5.2-.1 0-.1 0-.1.1.5.2.5-.2.7-.3.6-.2-.4-.4-.3-.7l1.5.2c-.1.1-.3.1-.3.2.3.2 0 .2.5.3 0-.4.7-.1 1.1-.2.1.2.2.2-.2.2 0 .2.5.3.7.3.1 0 .3 0 .4-.1-.1-.1 0-.3.3-.3-.5-.2-1.3-.6-1.6-.4V31c-.6-.3-1.4.2-1.6-.3.1-.2-.1-.1-.1-.3l-.5.1.1-.1-.8-.1c-.4.2-.7.3-1 .4 0 .1 0 .2-.1.2h-.3c-.2-.1-.3-.2-.5-.3l.7.1c.1-.2.1-.4-.3-.6.1 0 .2-.1.1-.2 0 0-.5.1-.3.2-.7 0-1.7-.7-2.8-.4.8-.1-.6-.3.3-.3-.5-.4-.5.2-1.1.1 0-.1.3.1.5-.1-1-.2-1.7.3-2.6.1v-.2c-.1-.1-.3-.1-.5-.1zm-1.9.2c-.2 0-.4 0-.6.1h.1l-.6.2c.3.1.5.4.1.5 0-.1-.1-.2.1-.3-.3-.2-1-.3-.8 0 .6-.3.1.5.6.2-.3.2-.5.1-.8.2.3-.2 0-.5-.4-.6h-.9c.1.2-.2.3.3.4-.2 0-.4.1-.7 0 .1 0 .3 0 .3-.1-.2-.2-.4-.2-.5-.3h-.3l.1.1-.3.2c.4-.1.2.1.2.2 0-.3-.3 0-.4 0l.3.3c-.2.1-.5-.2-.4 0 .6.1.9.1 1.5.1l-.2-.2c.7-.1.4.4 1.1.4.3-.2 1.1 0 1.2-.3-.1.1.4.4.7.2.3-.3 1.2-.3.9-.5-.2 0-.6.2-.7-.1h.5l-.3-.2c-.1 0-.1-.2-.1-.5zm-10.1-2.5z" class="st0"/>
    <path d="M101 35.7c.2 0 .4.1.5-.1-.1.2-.6-.2-.5.1zm.3.3s.1-.1.2-.1l-.4-.1.2.2zm-.2 1.5c.2-.1.4-.1.7 0-.1.5-.5 0-.8.4.5.2.8-.1 1.3 0-.1-.3-1-.7-1.2-.4zm-.4.6h.3V38h-.3zm-5.3-6.6c0-.2-.2-.1-.3-.1.1.1.2.2.3.1zm-64.5 0l-2.4 1c.7-.3 1.3-.6 2.4-1zm56.2-1.1c.7 0 1.1-.2 1.7-.2-.8-.5-1.3.3-2-.2l.3.4zm.5-1.2c0 .3-.6.2-.5.5.5 0 .3-.2.7-.1l-.2-.4zm1.7 5.6l-.2.1h.2zm-4.8-6h.1l-.4-.2zm.1-.1zm4.3 6.7l.3.1.2-.1zm-2.1-2.2h.3c-.1 0-.4-.2-.3 0zm-4.4-4.9h-.3v.1l.4-.1zm2.2 5.3c.1.3-.5 0-.2.2.3.1.2-.1.2-.2zm-3.5-2.4H81c0 .1 0 .1.1 0zm0 0c.1 0 .3.1.4.1-.2-.1-.3-.1-.4-.1zm-1.7-.1h.1c-.1.1-.1.1 0 0 .1 0 .1-.1.2-.1l.1-.1s-.1 0-.1.1c-.2 0-.3 0-.3.1zm-5.6-4.8c.5.1.6.2.6.4.5.1.4-.2.7-.2-.5 0-.6-.1-1.3-.2zm1.3.2h.2-.2zm5.9 6.8l-.4.2h.2zm-7.9-7.1c.1 0 .2 0 .3.1.1-.2-.4-.2-.3-.1zm1.5 3.8c0 .1.3.1.5.1-.2 0-.3-.4-.5-.1zm-2.9-3.2c.1 0 .2.1.1.3.1 0 .4-.4-.1-.3zm2.1 3v.1l.4-.1zm.8 2.8c.4-.2-.5-.6.1-.7-.8-.3 0 .3-.6.2.4.2.6.5.5.5z" class="st0"/>
    <path d="M74.2 32.2H74c.1-.1.2-.1.2 0zm-5-1.8c.1 0 .1 0 .1-.1 0 0 0 .1-.1.1zm3.1 1.7s.1-.1.3-.1c.1-.1.3-.1.3-.1-.4.2-1.3.1-1.2.4.3.1.6 0 .8-.1l-.2-.1zm-6-6.2l.2-.1-.3-.1c.2 0 0 .3.1.2zm-.1-.2c.1 0 0 0 0 0zm4.1 4.6h.5c-.1-.1-.5-.2-.5 0zm-5.7-4l.4-.1-.4.1zm-1.9-.5v-.1l-.4.1.1.1zm2.4 6.4c.3 0 .5-.3.4-.3H65c.1.3.1 0 .4.1l-.3.2zm-16.3-5c.1-.2.7-.2.7 0-.1.1-.4.2-.2.3l.4-.5c.6.2-.4.6-.7.8.6 0 .8-.3 1.4-.4-.2 0-.3-.1-.4-.2-.1-.3.6-.2 1-.3-.3-.1-.1-.2 0-.4 0 0 .1 0 .1-.1l.1-.1h-.1s0-.1-.1-.1c-.4.1-.7-.1-.9 0 .3.4-.8.2-1.1.4l-.3.1h-.1s0-.1.2-.2c-.2.1-.7.2-.6.3L47 27s-.1 0-.1-.1v.1s-1.4.2-2.7.5c-1.3.3-2.7.5-2.7.5h.8c-.3.4.5 0 .4.3-.2.1-.4.2-.6.1 0 .2.2.2.2.4.7.1.7-.7 1.4-.7 0 .2-.2.4.3.3l-.1.1c.7-.3.6.3 1-.3v.3c.3-.2.9-.4 1.2-.5v.1c.9-.4.5-.1 1.6-.4l-.5.4c.4.1.4-.3.7-.3 0 .1.1.2-.2.3l1.3-.6c.2-.3-.1-.2-.2-.3zm1.7.2h.2c0-.1-.1-.1-.2 0z" class="st0"/>
    <path d="M41.1 28.1l.4-.1c-.2 0-.3 0-.4.1zm11.3-1.5c-.2-.1.2-.2.2-.3l-.8.1c0 .1-.1.2 0 .3l.6-.1zm-.9-.4c0 .1-.1.1-.2.2l.5-.1c-.1 0-.1-.1-.3-.1zm.6 5.3l-.1.1-.2.1zm-2.2-.1c.2.1.5 0 .6-.1-.4.1-.2 0-.6.1zm.6 1.6l-.3.1zm-11.9-3.3l-.2.1c.1-.1.1-.1.2-.1zm3-.9c-.9-.1.5-.4.2-.7l-.4.2v-.1l-.6.1c.2.1.2.1.3.3-.8.1-.3-.2-.9-.3l-.8.2.1-.1c-.1 0-.1.1-.1.1l-2.8.8c-.5.3.4.2.1.6.6-.1 1.5-.2 1.5-.5 0 .1 0 .2.1.2l.3-.4h-.4c.3-.4 1.4-.6 1.7-.5-.6.3-.2.5-1.2.6.1.1.3.2.1.3.8-.3 1.8-.3 2.8-.8zm-10.5 2.9zm.4-.1l.4-.5-.8.3v.3c.1-.1.3-.3.4-.2v.1zm.9-.9c-.4.2-.3.5 0 .6-.3.2-.3-.2-.5.1.1.2.5-.1.6-.1l-.1-.6zm3.1-.7l-.1.1h.3zm-.1.1h-.3c0 .1.1.2.1.2l.2-.2zm-1 .2c-.1 0-.3 0-.4.1l.4-.1zm.3 0h-.3.3zm.4-.1c-.1-.2-.2-.4-.6-.2l.2.3.4-.1zM48 33l-.3.2.3-.2zm-1.9.1c-.1.1-.1.1-.2.1.1 0 .2 0 .2-.1zM45 34.7c-.4-.1.5-.4-.2-.3-.1-.2.2-.5.5-.5 0 .2-.3.2-.1.3.2-.2.3-.1.2-.4.3-.2.3-.4.5-.7-.4.2-1.4.1-1.9.5-.2.4 0 .8.1 1.3.2.2 1 .1.9-.2zm.7.4c.2 0 .2 0 .3-.1 0-.2-.2.1-.3.1zm-4.6-2.8c0 .1-.3.2-.2.3l.5-.2c-.2.1-.2 0-.3-.1zm.4.1l-.2.1c.1 0 .1-.1.2-.1zm-.4-.1zm-7.9-1.7c0-.1-.2 0-.3.1 0-.1.2-.1.3-.1zm-7.8 3.2h-.2.2zM24 38.2c0 .1 0 .1 0 0 0 .1 0 .1 0 0zm0 .1c-.1.2-.5.2-.6.4v-.1l-.2.2c.3-.1.8-.3.8-.5z" class="st0"/>
  </g>
  <g id="vs-bottom">
    <path d="M103.6 89.3c.2-.1.4 0 .3.1.3-.3.4-.1.3-.5.2-.3.5-.1.3.1l.6-.5-.4.1c0-.3.7-.2.7-.5l-.7.3v-.1c-.1.2-.5.2-.6.2 0-.1 0-.1.1-.2-.9.3 0 .6-.7 1h.1zm-1-.4l-.2.5-.6.1c0 .1-.3.4 0 .4 0 0 .1-.1.2-.1 0 .3-.6.4-.4.6.4-.2.5-.2.6-.5.4-.1.7-.2.9-.1.1-.1 0-.2.2-.3h-.1l-.2-.4c-.1.1-.2.1-.3.2l.4-.7c-.3-.3-.9.1-1.2.1.6.1 0 .2.7.2zm.8.5zm-48 10c-.1 0-.2.1-.2.1l1.6.1c0-.1-.5-.3-.2-.3-.1-.1-.6-.1-.6.1l.1-.2c-.4.2-.6-.3-.4-.4l-1.1.8c.4.1.4-.2.8-.2zm-31.7-8zm30.7 8.4l-.3.2c.1 0 .2-.1.3-.2zm2.5-3.8l-.1.1s0-.1.1-.1zm-9.9 4h-.1.1zm14.1-5.3l-.7.2c.1-.1-.2-.1-.1-.2-.1 0-.3.1-.2.1h.1c-.4.3-.2.5-.8.7.4.2.5 0 .7-.1h.2l.6-.5.2-.2zM33.6 93zm.1-.2c0 .1.1.1 0 0z" class="st0"/>
    <path d="M54.5 99.6c0 .1-.1.1-.1.2l.3-.2c-.1.1-.1 0-.2 0zm.6-.7h.6l.2-.2c-.2.1-.4.1-.8.2zm-7.2 1.4c-1.3-.1.4-.4-.2-.5-.4 0-.5.2-.7.2 1 0-.2.6.8.7-.2.3-.8.3-1.1.1-.3-.4.4-.2.5-.5-.4 0-.3.1-.5.2-.6-.2-1.4.2-1.7-.3-.5 0-.5.2-.8.3-.1.3.6.3.8.6 0 0-.1-.1-.1-.2l.4.2c-.4-.2.1-.3.3-.3.1 0 .4 0 .4.1h-.2c.3.2.7-.2.9.1 0 .1-.1.1-.1.2.4-.2.7-.1 1.2-.2l-.3.3c.5-.3 1.3-.1 1.9.2-.1-.1-.2-.1-.1-.2.4 0 .6.2.4.4.4-.2 1.3.4 1.9.1l1.2-.8 1.2-.8c-.1 0-.2.1-.3.1-.2-.3-.3-.3.1-.6-.4.1-.3.4-.8.4.2-.1.3-.5-.2-.6-1.3.3-2.2 1-3.4 1.3 0-.2-.9-.3-1.4-.4.2-.2.6-.3.9-.3-.2 0-.6-.1-.9-.2l-.1.4zm3-.4zm-1.8.1H49h.1zm5.2-1c.1-.1.1-.1.2-.1 0 0-.1 0-.2.1zm.2.5zm-10.9-2.1h-.1.1z" class="st0"/>
    <path d="M46.6 99.7c.4 0 .1-.4.7-.3h-.2c.5-.1 1.2.1 1.7.1-.1.1.3.2.2.4.4 0 .7 0 .9-.2.2.1.6-.1.8.1-.1-.2.5-.4-.2-.3.1 0 0 0 .1-.1-.4-.2-.6 0-1 0-.2-.2.4-.2.2-.2-.5.1-1.5-.4-1.5.1-.3 0-.4-.1-.5-.2-.6.5-2-.5-2.1.2.2 0 .5.1.8 0l.1.4zm7-.7c-.1 0-.1 0 0 0-.1 0-.1 0 0 0zm5.3 2.4l-.2.4c-1.1.1-1.4-.1-2.3-.2-.1-.1 0-.1.1-.1-.6 0-1.6-.2-2.1 0-.2 0-.7-.2-.5-.3-.1 0-.2.1-.3 0 0-.2.3 0 .3-.2-.1 0-.1-.1-.1 0 .2-.1-.1-.6.6-.5.2.4-.5 0-.4.4.2 0 .2-.1.2-.2.3 0 .3.1.3.2.1-.1.5.1.7-.1.6 0-.1.3.3.3l.2-.4.6.1c.9-.1-.1-.7 1-.9-.1.2.2.6.7.7-.3 0-.8.2-1.2.1.5.4-.7 0-.5.4.3-.2.7-.2 1 0h-.1c.4.1.7-.4 1.1-.1.2 0 .2.1.1.2.3.2.5.1.5.2zm-.5.1l-.3-.1c0 .1.1.1.3.1zm40-11zm-27.7 5.6h.2-.2zm4-1.8l.3-.1c-.2 0-.2.1-.3.1zm21.6-3.1v.1zM83 94.1s.1 0 .2.1c-.1-.1-.1-.1-.2-.1zm-8.4.3c.1 0 .1 0 0 0zm-5.8.6h-.1.1zm.4 1.2h-.1.1zm-6.4-.7l-.2.1c.1 0 .2 0 .2-.1zm5.7.4s0 .1 0 0c0 .1 0 0 0 0zm31.8-4.7zm.4-.8l.2-.1c-.1 0-.2 0-.2.1zm-14 3.6c.1 0 .2.1.2.2 0-.1 0-.3-.2-.2zm13.3.1c0-.1.1-.1.1-.2-.1.1-.1.2-.1.2zm.1-.2l.1-.1-.1.1zm-14.4 3.9s0-.1 0 0zm15.3-7.5c0-.1.8-.6 0-.4-.1-.3.4-.3.6-.5-.2 0 0-.2-.1-.3-.1.1-.2.2-.3.2-.1-.1.1-.3.3-.3-.3-.1.2-.3-.2-.3-.7.4-1.1.7-1.5 1.3.4-.2.8-.5 1.2-.5v.3c-.5-.1-.6.2-1 .3l.9-.2c.5.1.2.2-.1.4.1-.1.2-.1.2 0zm.3 2.4zM62.8 101l-.1.1c.1 0 .1 0 .1-.1zm37.5-9.3zm-35.5 9.4zm.5-5.9c-.1 0-.1 0 0 0zm-.5 5.8c0 .1 0 .1 0 0 0 .1 0 .1 0 0zm9.7-1.6s-.1 0 0 0c-.1 0-.1 0 0 0zm-2-.1c0-.1 0-.1 0 0zM86 92.9c-.1 0-.2 0-.2.1 0-.1.1-.1.2-.1zm-21.2 8.2s0 .1 0 0zm12.4-3.4h-.1l.1.1z" class="st0"/>
    <path d="M78.2 97.8s-.1.1 0 0c.3-.1.9 0 1-.3-.1 0-.8-.1-.7-.2-.2.1-.6-.1-.7 0 .4.1.1.2-.2.4-.3-.1 0-.2-.2-.3l-.6.1h.5l-.1.3c.8-.4.1.3 1 0zm-.1.1l-.1.1c.1 0 .1-.1.1-.1zm3.5-.1s.1 0 .1-.1c0 .1 0 .1-.1.1zm-25.2 1c0 .1.5.3.5.1l-.5-.1zm34.1-4.2h-.2c.1.1.1 0 .2 0zm-11.9 2.5c-.1 0-.1.1-.1.1s.1 0 .1-.1zm12.1-2c.1 0 .2.1.2.2.1 0 .2-.2.3-.3-.1.1-.3.1-.5.1zm.5-.1z" class="st0"/>
    <path d="M56.1 98.7H56h.1l-.4-.1h-.1.1-.1c-.3.2-1 .3-1.2.4-.3.1-.6.1-.8.1.2 0 .4 0 .4-.1-.4-.2-.5-.5-1.2-.3h.4l-.9.4c-.3-.2.4-.2.6-.4-.7.2-1.2-.5-1.5-.1 0-.2 0-.7-.5-.7.3.3-.3.1-.1.5-.2.1-.5-.2-.5 0l.1-.1c-.7-.5-1 .1-1.3.2-.9 0-1.3-.2-2-.3 0-.2-.1-.6-.4-.7-.2.2-.8.2-.9.5.5.2.5-.2.8-.2.2.3 0 .3.3.5-.3-.1-1.3 0-1.5-.4h.1c-.5-.3-.4-1-1.3-.7l-.4.1v-.1c-.6-.1-.4-.4-1.1-.3.1 0 0 0 .1-.1-.4-.2-.8 0-1.1 0-.1-.3.1-.2.2-.4-.7-.2-1.5 0-2 .2l-.4-.2c.3 0 .7-.2.6-.4-.3 0-.2.1-.6 0 .1-.1.3-.2.5-.4-.7-.4-.3.5-.7-.1-.2-.1-.4.1-.5.3l-.3-.3c-.1.2-.6.1-.9.1-.1.1.2.3.4.2-.1.2-.4.2-.7.1 0-.5-1.5-.3-1.1-.8-1-.1-2.5-.5-3.2-.5-.2-.2-.6-.3-.3-.5-.8-.2-1.4.1-2.1-.3 0-.1.4.1.4 0-.6 0-.9-.5-1.7-.7.1 0 .2 0 .2-.1 0 .1-.4 0-.6 0-.1-.1.2 0 .1-.1-1.4-.8-2.8-.6-4.3-1.3.4.2.7 0 .8-.2l-.4-.2c-.2.1-.5-.1-.8-.1 0-.1-.1-.2.1-.2-.7-.7-1.5 0-2.5-.7h1.5l-.2-.3h.7c-.2-.3-.7-.1-.6-.3.1 0 .2.1.3-.1-.3-.2-.4-.1-.6-.1.8-.2 2 .4 2.6.5.1 0-.1.1-.2.1.3.1.4.3.7.4.3-.1-.1-.2-.2-.3.1-.2.2-.1.4-.1-.1.3 1 .5 1.1.8 1 .3.1-.6 1-.2l.2.4c.6 0 1.4.1 2 .4h-.1c-.1.1 0 .2 0 .3.4.3 1 .1 1.2.5.6-.1 1.6 0 2.3 0 .1.4-.9.1-1.2.2l.6.2c-.4-.1-.5 0-.8.1.5.2.7 0 1.2 0-.1.1 0 .2.2.2l.1-.2.1.1.9.1c-.1-.2-.1-.4-.3-.4 0 .2-.2.1-.4.1.2-.1-.2-.2-.1-.3.4.1 1 .3 1.3.3v.2c.4.2.9.2 1.1.3l-.1.1c.5.2 1 .2 1.4.5.5-.1 1.1-.2 1.6-.4.3-.2 1.2.7 1.8.4 0 0-.4.1-.6.2.3.1.7-.2.7.2-.7-.3 0 .2-.4.2.4.1.7.1.9 0-.6-.1.3-.4-.3-.4.5-.2 1.1-.1 1.7.1 0 .1 0 .2.2.3l.2-.2c.2.1-.5.1 0 .3.6-.2 1.6.5 1.9-.1.4.3-.8.1-.3.5-.4.1-.8-.2-1 .1.4 0 .1.3.3.3l.4-.1H45c.7-.2 1.7.2 2.5.2.8-.2 1.3-.6 2.1-.4-.3.1.7.3.1.5.4.2.8.1.8-.1-.3-.1-.1-.1-.4-.2.2-.1.7-.1.8.1-.1 0-.1 0-.1.1.4.2.2-.1.5-.2.1.2.6.1.9.3l.4-.3c-.2.2.4.1.4.3.3-.1.6-.4 1-.3-.2.1.4.2.4.4.7.3 1.3-.5 1.9-.1 0 0-.2.2 0 .2h.6c.1 0 .1 0 .1-.1.3-.2.5-.4 1.1-.5 0-.2-.5-.2-.7-.1l-.4.7c-.2-.4-.5 0-.6-.1.4-.4 1.4-.2 2-.4-.3-.4-1.1-.5-1.8-.5l.3.2h-.4l.3.3c-.3-.1-.6 0-.9-.1.4 0 .5.4.3.3-.4-.3-.4.1-.7.1.2 0 .4.1.2.2-.6-.3-.8-.2-1.3-.5 0 .4-.7 0-.8.3l.3.1-.6.2c-.5-.4.5-.3-.3-.6-.7-.1-.7.3-1.3.3.2-.2.7-.3 1.1-.3l-.3-.1c.2-.1.8-.1 1.1 0-.6 0 .2-.1.4.1.1-.2-.3-.2.1-.4-.4 0-.4 0-.9-.1 1 .2 1-.7 1.8-.5-.4.1.1.3.2.5.2 0 .6 0 .7-.1l-.1-.3c.5-.1.6.6 1.2.3.1-.2-.5-.1-.4-.1.8-.2 1.1.4 1.8.7 0-.1 0-.3.3-.5-.1.2.1.3-.2.4.2.1.5-.1.7-.1-.5-.1.2-.3.3-.4.3 0-.1.2-.2.3.2.1.4.4.6.1 0 .2-.6.6-1 .6h.3c-.2.1-.2.1-.5 0 .2.2.2.3.1.5v-.1c-.2-.1-.4 0-.3.1-.2.3.3.2.4.3l.3-.1 1.1-.9c.5-.1.7.1 1 .3l.1-.2c.4 0 .8.1.5.4 0-.1-.1-.1-.2-.1 0 0 0 .1-.1.1.4-.1.7-.1.7-.1-.7.3 0 .4-.2.9l.7-.1c-.4-.1 0-.2.2-.3 0 .2.6 0 .9 0 .2.1.7.1 1 0 0-.1.4-.5.5-.7-.5-.1-.2-.2-.3-.3h.2c.1-.1-.1-.1-.1-.2-.5.1-1.1.1-1.3.5.2.2.3-.1.5 0-.3.2-.6.2-1.1.2l-.1-.2-.5.1c.2-.1.1-.3.5-.4-.1-.2-.5 0-.8 0l-.1.3c.1-.2-.6-.2-.1-.4l.7-.2-.2-.2h.6l-.1.1c1-.2.3.5 1.3.2.3-.3.6-.3 1.2-.3-.4.1 0 .2-.2.4.4.1.6-.2.8-.3.1.2.2.3-.2.3 0 .4.5-.1.6.3 1.3-.1 1-1.3 2.5-.9v.2c1-.2 1.5-.1 2.4-.3l.7.3c-.2.1-.6.4-.3.6-.4-.4-.7-.2-1.1-.4 0 .1.1.2.2.2-.2 0-.3-.2-.6-.1 0 .1.3.2.1.2l-.4-.2c-.5.1-.2.6-.9.5.1-.2.3-.5.6-.6-.3 0 .4-.2.1-.3-.4.3-.6.1-1.2.3.1 0 .1-.1.2-.1l-.8-.1c.2.2-.7.2-.6.5.9.1.6-.1 1.6 0-.3.1-.6.4-.8.6h-.1c-.1.3 0 .3 0 .8.4-.4.7-.1 1.3-.3.1-.3-.3-.3-.6-.2l.5-.2-.1.1h1.2c-.2 0-.3.2-.4.3.2 0 .3.1.5.1-.1-.2 0-.4.1-.4.8 0 1.2.2 1.5.5h.1c-.1-.2.5-.5.7-.8 0 .3.4.1.6.2.1-.3-.1-.7-.4-.9-.5.3-.3.3-.5.7l-.4.2-.4.2.2-.3c-.4-.1-.8.3-.8-.1.2-.2.6-.1.8-.3l-.3-.1c.5-.3.3.3.8 0-.2-.2.1 0 .3-.2-.2-.1-1 .2-.9-.3.3-.2 1.1.4 1.4-.1v.1c.6 0 .8-.3 1-.5.3.1.6-.1.8-.2v.1l.4-.1c-.2.3-.4.1-.8.1l.1.2c-.4-.2-.6.2-.9.5.4-.3 1.2-.1 1.2-.6l.3.2.1-.1c.2.2.1.5-.3.6l-.1-.1c-.2.1-.3.3-.7.3l.2-.2c-.5.1-1 .2-1.2.5.8 0 1.5-.1 2.3-.2.1-.6.4-.9.4-1.4.5-.2 1.1-.3 1.6-.2v.1c.2 0 .4 0 .5-.1.2.1-.1.3.1.3l.7-.3c0 .2-.6.3-.9.4l.1-.1c-.3-.1-.9.4-1.1.1-.1.1.3-.3-.2-.2-.4-.1-.4.2-.5.3 0 .1.6.1.4.3.3-.1.4-.2.7-.2-.3.1-.6.4-.8.2-.5.3-.4.9-.1.9-.1-.2 1-.4.2-.5.3-.3.9-.4 1.3-.6v.1l.5-.1c-.1.1-.2.2-.2.3l.7-.4c-.4.3.3.1.5.2 0-.2.3-.4 0-.5-.3-.1-.2.1-.4.2l.3-.4.2-.3c.5-.1-.1.6.5.3l-.1-.3c.8-.1 1.8.1 2.4-.2-.1.2-.1.6.1.7-.2 0-.7.1-1.1.2-.1 0 .3-.5.7-.5-.3-.5-.9.5-1 0-1 0-.6.7-1.5.5 0 .3-.2.2-.2.4.3.4 1.1-.2 1.6-.2 0 0-.1.1-.2.1.4 0 .5-.1.8-.2.4-.3.3.1.6.2.1-.1.5-.1.4-.2l.5.1-.1-.3c.3-.1.4.1.6-.1v-.3h-.7c.3-.2 0-.3.4-.4-.4.4.3.1.4.3l.2-.2-.1.1c.2.1.2-.1.5-.2-.3-.1-.6-.2-.9 0 .2-.2.8-.5.9-.5.3-.2.5 0 .8 0-.5.2.4.7-.7.8 0-.1.1-.1.1 0-.2-.3-.6.1-.8.3.1.2-.1.3.3.3-.2-.1.3-.5.7-.4v.4l.6-.1c.3.2.6-.2 1-.1.2-.2 1.3-.3.8-.6.4.2.6-.2 1-.4h-.5c.5-.4.4-.2.7-.8.1.1.2.2.1.3.7-.2 1.8-.4 2.2-.8.5-.1.7.3 1.4-.1.1-.1-.2-.3.3-.4 0 0-.4.4.1.2.3-.4.9-.1 1.4-.5.3 0 .7-.1.7.1-.4.1-1 .3-1.1.4 0-.2-.3-.1-.1-.3-.7 0-.4.3-1 .3 0 .1.4.2.5.1.1.3-1.1.5-.4.7.6-.1.6-.9 1.2-.7-.1.3-.5.2-.7.6h.5l.2-.3v.1c.9.1.6-.5 1.2-.9-.5-.1-.1-.6-.4-.7.4-.2.8-.2.9.1-.8.5.1.4-.6.9.2.1 0 .5.4.4.5-.4-.2-.2.2-.5 0 0 .1 0 .1.1.2-.2.3 0 .5-.3v.1c.4.1.3-.4.7-.2-.2-.2.1-.3.3-.5-.3 0-.6-.2-1.2 0 0 .2.1.3-.2.5l.4-.1-.2.2h-.4c.4-.3.2-.4.3-.7.5 0 .3-.2.6-.2.1.3 1 .2 1.6.2-.1 0-.2.1-.2.1-.3.3.3.1.4.2l.2-.2s-.1.1 0 .1c.3-.2.2-.5.6-.6.1.1-.1.5.1.5.1.1.5.4.9.1 0-.1.1-.2.3-.2h.4c-.2.4-.6.1-.8.4l.1.3c-.2.1-.5.3-.6.5.3-.1.4-.2.7-.4.1.1-.1.4-.1.4v-.2c-.5 0-.6.5-1.1.6-.1 0 0 0 0-.1-.4.4-.9.2-1.2.7l.1-.2c-.3.2-.7.7-1.3 1.1v.1c.1 0-.1.1-.3.1-.3.2-.5.4-.7.5.1 0 .2.1.3 0 .1-.1.6-.2.5-.4.3.1.6-.3.9-.2-.4-.1.2-.3.2-.5.2.1.5-.2.5 0 .1 0-.2-.1-.3.1-.3.3.7-.1.3.3.5-.4 1.2-.6 1.7-1h-.3c.3-.1.8-.3.9-.2l-.6.3c.1.3.6-.2.7-.1l.5-.7-.3.1c.1-.2.8-.3 1.3-.4-.1.4-.7.3-1.1.6-.3.3.3.2 0 .5.1 0 .3 0 .4-.2h.2c-.2.4-.9.6-1.3 1l.1-.1c-.4 0-.7.1-1.1.4.2 0 .3-.1.4-.1 0 .1-.3.2-.4.4.3 0 .1.2.3.1-.2.2-.4.2-.6.3-.2-.1.1-.2 0-.3-.2.2-.5-.1-.8.2.5-.1 0 .4-.2.6h.1c-.1.2-.2.3-.4.1.2-.1.4-.1.3-.3-.1.1-.3.1-.4.2l.1-.2-.7.2c-.1.2-.2.5-.2.7-.2-.1-.4.1-.6.2l.1-.1c-.4-.1-1 .3-1 .4-.3-.1 1.3-1.4-.2-.8-.6.2-.2.6-.5.8v-.1c-.3 0-.2.2-.4.4.2 0 .4 0 .5-.1 0 .2-.5.1-.7.3.2-.4-.5 0-.4-.2-.6 0-1.1.3-1.3.6-.5-.3-.6.2-1.2.2.1 0 .2-.1.4-.1.3-.3-.6 0-.2-.3-.1.1 0 .1.1.1.2-.1.3-.2.3-.3l-.5-.1.1-.1-.8-.1c0 .1.1.1.1.1-.4 0-.9.2-1.3.3l-1.2.3c0 .7-1.7.7-2.2 1.2.1-.2.1-.6 0-.7.1-.1.3-.4.6-.4.1.1.5.1.3.3.8-.2-.2-.3 0-.6-.9.3-1.3.8-1.9 1v-.1l-.4.2c.4 0 .4.4-.1.3h.1c-.3-.1-.8.2-1.2.3l-.2.3c-.4.1-.5-.4-.7-.6-.6.1-.9.5-1.4.8-.2-.2-1.2-.1-.7-.4-.6.2-.3 1.2-1.4.8l.2-.2c-.9.2-2.3.7-2.7.6.3-.7-1.3-.5-1.5-1.1.1.1-.3.2-.3.3-.1-.1-.2-.1-.3 0 .4.1-.2.7.5.3-.3.5-.7.9-1.5.9v-.3h.6c-.1-.2.2-.2.4-.3-1.2 0 .1-.6-1.1-.5-.1.2 0 .1-.3.2.1 0 .2-.2-.1-.2l-.2.2c-.5-.4.7-.3.3-.6.4-.2 1.2-.5 1-.8-.7 0-.6.7-1.4.6l-.2.7c-.3.1-.3.3-.4.5 0-.1-.1-.1-.3-.2-.4.4-.7.4-1.1.8 1.1-.3 1 .2 2.2-.1-.2.1-1 .2-1 .6v-.3c-.4.2-.8.3-1.2.3l.3-.2c-.6.2-1.1-.3-1.6.1h.4c-.3.1-.7.1-1.1.1l-.7.5c0-.1-.5-.1-.3-.3-.5-.2-.8.2-1.1.3-.6-.2.5-.2.5-.5-.8-.1-1.6.1-2 .3.2.1.2.1.2.2 0-.1-.3-.1-.5-.1l-.1.2c-.3-.1-.2-.2 0-.3-.3 0-.6.3-.9 0 .5-.2 1.1 0 1.3-.1-1 .2-1-.5-2.2-.3 0-.1.2-.2 0-.2-.5.1-.1.4-.3.5.4-.1.6 0 .9.2l-.1.1c0-.1-.3-.1-.4-.1l-.1.3c0-.3-.4-.6-.7-.4.3.2.2.2.3.6-.5.3-.5-.3-1.1 0 0-.1.5-.2.1-.3-.3 0-.3.2-.5.3.3-.3.2-.5.5-.8.6 0 .2 0 .8-.1l-.5-.2c.5 0 .4-.3.4-.4-.8-.3-.6.4-1.2.3-.3.2.5 0 .1.2-.5 0-.1.2-.7.3l.1-.1c-.2-.2-.3 0-.5.1s.2.9-.7.9c0-.1.1-.1.1-.1l1-2.2c-.5 0-.9 0-1.4-.1l-1.5-.3c-.2-.4.8-.3.7-.5l.5.1c0 .2-1 0-.6.3.8-.1 1.2.2 2-.2-.2-.4-1.1.1-1.6-.3h.6l-1.5-.3-.1.1c.4.1.6.1.7.1-.5-.1-.9.1-1 .4h.1l-.2.1-.6-.1zm-31.3-7.2s.1 0 .1-.1c0 0 0 .1-.1.1zm41 6.4c-.7 0-1.3-.1-2-.2 1.1.6 2 1.1 0 1.1h-.1c.3.1.7.1 1.1.1.3-.2 1.4-1.1 1.3-1.1-.1-.2-.3 0-.5 0l.2.1zm.5 1c.4 0 .3-.1.3-.2l-.4.1c.1 0 .1 0 .1.1zm.3-.3s-.1 0 0 0zm-7.3-.2s.1 0 0 0h-.2.2zm.8.3l.1-.2h-.3l.2.2zm2.4.8c.2-.3.7-.3.7-.6 0-.1-.1-.1-.2-.1h-.4s0 .1-.1.1c.2 0 .3.1.2.3-.4-.4-.4.3-.8.2-.1.2.5.2.6.1zm32-5.5s.1.1.2.1l-.2.2c-.5.1-1.1-.2-1.4.3-.2 0-.4-.2-.6-.3h.3c1.1-1 .8.3 1.7-.3zm-6 1.1c.1 0 .1-.1 0 0-1 .7-1.9 1.1-2.5 1.2.2.2.8.3 1.1.3l-.2.3-.2-.2-.4.3c.2.1.5 0 .7.1 0-.1.7-.5.8-.7l-.6-.1c.2 0 .9-.2 1.2-.3 0-.1-.6-.2-.6.1-.1-.2.5-.3.1-.4.4-.3 1.1-.3 1.5-.3l.1.3c.4 0 .1-.4.6-.4-.5.2.2.3-.2.5.2.1.1.3.5.2.2-.5.5.1.7-.3.3.1-.2.3.3.3.4-.4.4-.5.3-.8-.5 0-.4.5-.8.6l.6-.7h-.3l.3-.3c0-.1.1-.1.1-.2-.4.1-.8.2-.9.1v-.2c-.2-.1-.4.1-.5.2-.4.1-.7.4-.8.3l.1-.2c-.3.1-.4.2-1 .3zM73 97.3c.3.5.7 1 2 .7v.1c.7.3 1.3-.6 2.1-.4-.4.3-.4.2-.7.8l.4-.2c-.1.3.3.1.7.1l-.2.4c-.2-.1-.7-.1-.7 0 .1-.1-.7-.4-1.1-.2.1.2.9 0 .6.5.3-.2.4 0 .7-.1-.3.2 0 .3-.3.6l.6-.2c0 .1-.8.3-.3.5.2-.2.9-.1.9-.3v.1c.5 0 .1-.4.7-.3 0-.1-.1-.2-.3-.2-.2.1-.2.3-.5.3-.2-.2.4 0 .1-.3-.2-.2-.9.2-.7-.2h.5c0-.3.3-.3.3-.5.3-.1.6.1.8-.1.1-.2-.2-.5.3-.4.4.3 1.5.1 1.8 0 0 0 .1-.1.2-.1.1-.1.2-.1.2-.1-.1-.1-.7.1-.5-.1 0 0 .1 0 .3-.1.1 0 .3-.1.3-.1v.1c.2 0 .3-.2.5-.2-.1.2-.5.2-.4.5.3 0 .3.1.5 0l-.1.1c.5 0 .4-.4.5-.5.4-.5-.6-.2-.6-.5l1.4-.4c-.1.1-.2.2-.2.3.4.1 0 .2.6.1-.1-.4.6-.4.9-.6.2.1.2.1-.1.2.1.2.6 0 .7 0 .1-.1.3-.2.4-.2-.2-.1-.1-.3.2-.4v-.1c-.5 0-1.4-.1-1.7.3l.1-.1c-.6-.1-1.2.7-1.6.3 0-.2-.1 0-.2-.3l-.4.3.1-.1H81v-.1c-.3.3-.6.6-.8.7 0 .1 0 .1-.1.2s-.2.1-.3.1c-.2 0-.3-.2-.6-.2h.8c0-.2-.1-.4-.4-.5.1 0 .2-.2 0-.2 0 .1-.4.2-.2.3-.7.2-1.8-.2-2.8.3.7-.3-.6-.2.2-.4-.6-.2-.4.4-1 .4-.1-.1.3 0 .4-.3-1 0-1.6.7-2.5.7l-.1-.2c-.2.1-.4.2-.6.2zm-1.8.5c-.2 0-.4.1-.5.1h.1l-.5.2c.3.1.6.3.1.5 0-.1-.1-.2 0-.3-.3-.1-1-.2-.8.1.6-.4.2.5.6.2-.2.3-.5.2-.7.3.2-.2-.1-.5-.5-.5-.2.1-.6 0-.9.1.1.2-.1.4.3.4-.2.1-.4.1-.7 0 .1 0 .3-.1.3-.2-.2-.2-.4-.2-.5-.3l-.3.1s.1 0 .1.1l-.3.3c.4-.1.2.1.2.2 0-.3-.3 0-.4 0l.3.3c-.1.1-.5-.2-.4.1.7.1.9 0 1.5-.1l-.3-.2c.7-.2.4.3 1.2.3.3-.2 1.1-.1 1.1-.5-.1.1.5.3.7.1.3-.4 1.1-.5.8-.6-.2 0-.5.2-.7 0l.4-.1-.3-.2c.2 0 .2-.1.1-.4zm-9.9-2z" class="st0"/>
    <path d="M100.6 91.1c.1-.1.4-.2.3-.4 0 .2-.6.2-.3.4zm.4.1c0-.1 0-.1.1-.2l-.3.2h.2zm.9 1.2c.1-.2.2-.3.5-.4.3.4-.4.3-.4.8.6-.2.6-.6 1-.9-.3-.1-1.3.1-1.1.5zm-.1.7l.3-.2-.3.2zm-8-2c-.1-.1-.2.1-.3.1.1 0 .2 0 .3-.1zm-61.1-.3l-2.3-.6c.7.2 1.3.4 2.3.6zm53.6 3.3c.6-.3.8-.6 1.5-.8-.9-.1-1 .7-1.8.5l.3.3zm-.1-1.3c.2.3-.4.4-.3.6.4-.2.1-.3.5-.4l-.2-.2zm4.1 4.3l-.1.2.1-.1zm-6.9-3.4v-.1h-.3zm.1-.2zm6.7 4.3l.3-.1.1-.1zm-3-1l.2-.1s-.4-.1-.2.1zM81.4 94l-.3.1.1.1.3-.2zm3.9 4c.2.2-.5.2-.1.3.4-.1.2-.2.1-.3zm-4.2-.7s-.1 0-.1.1l.1-.1zm0 0c.1 0 .3 0 .4-.1-.2-.1-.2 0-.4.1zm-1.6.2h.1c-.1.1-.1.1 0 0 .1 0 .1-.1.1-.2 0 0 0-.1.1-.1l-.1.1c-.1.1-.2.1-.2.2zm-6.4-3.1c.5 0 .6.1.6.2.4 0 .3-.3.6-.4-.5.1-.6 0-1.2.2zm1.2-.2h.2-.2zm7.5 5l-.3.4.1-.1zm-9.3-4.8h.3c0-.2-.4 0-.3 0zm2.1 3.3c.1.1.4 0 .5 0-.2 0-.4-.3-.5 0zm-3.4-2.5c.1 0 .2.1.2.3.1-.1.2-.5-.2-.3zm2.5 2.6h.1l.3-.1zm1.5 2.5c.3-.3-.6-.4 0-.7-.8-.1.1.3-.5.3.3.1.5.3.5.4zm-.6-.4h-.2.2zm-5.3-.9c.1 0 .1-.1.1-.1l-.1.1zm3.4 1.3s.1-.1.3-.2c.1-.1.3-.2.3-.2-.3.3-1.3.3-1.2.6.3 0 .7-.1.8-.2h-.2zm-6.6-5.5l.2-.1H66c.1 0 0 .2.1.1zm-.1-.2zm4.4 4.2c.2 0 .3 0 .5-.1-.1-.1-.6-.1-.5.1zm-5.9-3.5h.4-.4zm-1.7-.6h-.1l-.3.1zm2.4 6.5c.3 0 .5-.3.4-.3h-.5c.1.3.1 0 .5.1l-.4.2zm-15.5-6.9c.1-.2.7 0 .7.2-.1.1-.4.1-.2.2l.5-.4c.5.3-.5.5-.8.6.6.1.8-.1 1.4 0-.2-.1-.3-.2-.4-.3 0-.3.6-.1 1-.1-.2-.2-.1-.2.1-.3h.2v-.1c-.4 0-.6-.2-.8-.3.2.5-.8 0-1.1.1h-.4c0-.1 0-.1.2-.2-.2.1-.7 0-.6.1l-1.2-.1-.1-.1s-.1 0-.1.1c0 0-1.3-.1-2.5-.4-1.3-.2-2.5-.5-2.5-.5.2.1.4.2.7.3-.4.2.4.1.2.4-.2.1-.4 0-.6-.1-.1.1.1.3 0 .5.6.3.8-.4 1.4-.2-.1.2-.3.3.1.3h-.1c.7-.1.4.5.9.1l-.1.3c.3-.1.9 0 1.2 0 1-.2.5 0 1.6 0l-.5.2c.3.2.5-.1.7-.1 0 0 0 .2-.2.3l1.3-.3c.4 0 0-.1 0-.2z" class="st0"/>
    <path d="M51.2 94.9h.2c-.1.1-.1 0-.2 0zm-8.6-2.2l.4.1c-.2 0-.3-.1-.4-.1zm10.5 1.9c-.2-.2.2-.2.2-.3l-.8-.1c0 .1-.1.2-.1.3l.7.1z" class="st0"/>
    <path d="M52.3 94c0 .1-.1.1-.2.2l.4.1c0-.1 0-.2-.2-.3zm-.5 5.4h-.1l-.3.1zm-2.2-.7c.2.2.5.1.6.1-.4-.1-.2-.1-.6-.1zm.3 1.7h-.4zm-10.1-7.2h-.2.2zm3 .4c-.8-.4.6-.1.4-.6h-.5l.1-.1-.5-.1c.1.2.2.2.1.4-.7-.2-.2-.3-.7-.6l-.8-.2h.1-.1l-2.8-.4c-.5 0 .2.4-.2.6.6.1 1.4.5 1.5.2 0 0-.1.1 0 .2l.4-.2-.3-.2c.4-.2 1.4.1 1.6.3-.6 0-.4.4-1.2 0 0 .1.1.3-.1.3 1 .1 1.9.5 3 .4zm-10-2.4c0-.1 0 0 0 0zm.3.1l.6-.2-.8-.2-.1.2c.1 0 .4-.1.5 0l-.2.2zm1.2-.2c-.4 0-.5.3-.3.5-.4 0-.1-.4-.4-.1-.1.2.4.2.5.2l.2-.6zm2.8.9l-.1.1.2.1zm-.1.1l-.3-.1v.3l.3-.2zm-1-.4c-.1-.1-.2-.1-.4-.2l.4.2zm.3.2l-.3-.2c.1.1.2.1.3.2zm.4.1c0-.2 0-.4-.4-.5v.3l.4.2zm10.6 7.7l-.4.1.4-.1zm-1.9-.5c-.1 0-.2 0-.2.1.1 0 .1 0 .2-.1zm-1.7 1.2c-.4-.3.6-.2-.1-.4 0-.2.4-.4.7-.2-.1.2-.3.1-.2.3.3-.2.3 0 .3-.3.4-.1.5-.3.8-.4-.5 0-1.4-.4-2-.2-.4.3-.3.7-.4 1.2 0 .1.9.3.9 0zm.6.5c.2.1.2 0 .4 0-.1-.1-.3.1-.4 0zm-3.4-4.3c0 .1-.4.1-.3.2h.5c-.2 0-.2-.1-.2-.2zm.4.3h-.2.2zm-.4-.3zM35 91.3c0-.1-.2-.1-.3-.1.1 0 .2.1.3.1zm-7.6-2.1l-.1-.2c0 .1 0 .2.1.2zm-4.1 2.2zm-.1 0c-.2 0-.5-.3-.7-.2h-.3c.4 0 .8.3 1 .2z" class="st0"/>
  </g>
</svg>
